<svg width="1440" height="933" viewBox="0 0 1440 933" fill="none" xmlns="http://www.w3.org/2000/svg">
<path d="M1466.89 4C1434.21 12.9611 1369.75 51.9915 1373.38 136.425C1377.91 241.966 1476.78 308.012 1501.5 407.58C1519.75 481.068 1517.16 665.127 1405.92 742.458" stroke="url(#paint0_linear_606_1313)" stroke-width="7.78561"/>
<path d="M1422.38 25.7822C1389.69 34.7433 1325.23 73.7737 1328.86 158.207C1333.39 263.748 1432.26 329.795 1456.98 429.362C1475.23 502.85 1472.64 686.91 1361.4 764.24" stroke="url(#paint1_linear_606_1313)" stroke-width="7.78561"/>
<path d="M1377.18 46.6426C1344.49 55.6036 1280.03 94.6341 1283.66 179.067C1288.19 284.609 1387.07 350.655 1411.78 450.222C1430.03 523.711 1427.44 707.77 1316.21 785.101" stroke="url(#paint2_linear_606_1313)" stroke-width="7.78561"/>
<path d="M1331.35 66.5928C1298.67 75.5538 1234.21 114.584 1237.83 199.017C1242.36 304.559 1341.24 370.605 1365.96 470.173C1384.2 543.661 1381.61 727.72 1270.38 805.051" stroke="url(#paint3_linear_606_1313)" stroke-width="7.78561"/>
<path d="M1284.9 85.5898C1252.22 94.5509 1187.76 133.581 1191.39 218.014C1195.92 323.556 1294.79 389.602 1319.51 489.17C1337.75 562.658 1335.16 746.717 1223.93 824.048" stroke="url(#paint4_linear_606_1313)" stroke-width="7.78561"/>
<path d="M1237.83 103.563C1205.15 112.525 1140.69 151.555 1144.31 235.988C1148.85 341.53 1247.72 407.576 1272.44 507.143C1290.68 580.631 1288.09 764.691 1176.86 842.022" stroke="url(#paint5_linear_606_1313)" stroke-width="7.78561"/>
<path d="M1190.13 120.416C1157.44 129.377 1092.98 168.407 1096.61 252.841C1101.14 358.382 1200.02 424.428 1224.73 523.996C1242.98 597.484 1240.39 781.543 1129.16 858.874" stroke="url(#paint6_linear_606_1313)" stroke-width="7.78561"/>
<path d="M1141.77 136.02C1109.09 144.981 1044.63 184.011 1048.25 268.444C1052.79 373.986 1151.66 440.032 1176.38 539.599C1194.62 613.087 1192.03 797.147 1080.8 874.478" stroke="url(#paint7_linear_606_1313)" stroke-width="7.78561"/>
<path d="M1092.75 150.215C1060.07 159.176 995.608 198.206 999.234 282.639C1003.77 388.181 1102.64 454.227 1127.36 553.795C1145.6 627.283 1143.01 811.342 1031.78 888.673" stroke="url(#paint8_linear_606_1313)" stroke-width="7.78561"/>
<path d="M1043.06 162.791C1010.37 171.752 945.913 210.782 949.538 295.216C954.07 400.757 1052.94 466.803 1077.66 566.371C1095.91 639.859 1093.32 823.918 982.084 901.249" stroke="url(#paint9_linear_606_1313)" stroke-width="7.78561"/>
<path d="M992.688 173.488C960.004 182.449 895.544 221.48 899.169 305.913C903.701 411.454 1002.58 477.501 1027.29 577.068C1045.54 650.556 1042.95 834.616 931.715 911.946" stroke="url(#paint10_linear_606_1313)" stroke-width="7.78561"/>
<path d="M941.675 181.978C908.992 190.939 844.531 229.969 848.156 314.402C852.688 419.944 951.563 485.99 976.281 585.557C994.525 659.045 991.936 843.105 880.703 920.436" stroke="url(#paint11_linear_606_1313)" stroke-width="7.78561"/>
<path d="M890.095 187.838C857.412 196.799 792.951 235.829 796.576 320.263C801.108 425.804 899.982 491.85 924.701 591.418C942.945 664.906 940.356 848.965 829.123 926.296" stroke="url(#paint12_linear_606_1313)" stroke-width="7.78561"/>
<path d="M838.113 190.542C805.429 199.503 740.969 238.533 744.594 322.967C749.126 428.508 848 494.554 872.719 594.122C890.963 667.61 888.374 851.669 777.14 929" stroke="url(#paint13_linear_606_1313)" stroke-width="7.78561"/>
<path d="M786.04 189.441C753.357 198.402 688.896 237.433 692.522 321.866C697.053 427.407 795.928 493.454 820.646 593.021C838.891 666.509 836.301 850.569 725.068 927.899" stroke="url(#paint14_linear_606_1313)" stroke-width="7.78561"/>
<path d="M734.424 183.79C701.741 192.751 637.28 231.782 640.906 316.215C645.437 421.756 744.312 487.802 769.03 587.37C787.274 660.858 784.685 844.917 673.452 922.248" stroke="url(#paint15_linear_606_1313)" stroke-width="7.78561"/>
<path d="M684.143 172.825C651.459 181.786 586.999 220.817 590.624 305.25C595.156 410.791 694.03 476.838 718.749 576.405C736.993 649.893 734.404 833.953 623.17 911.283" stroke="url(#paint16_linear_606_1313)" stroke-width="7.78561"/>
<path d="M627.79 153.012C595.107 161.973 530.646 201.003 534.272 285.436C538.803 390.978 637.678 457.024 662.396 556.592C680.641 630.08 678.051 814.139 566.818 891.47" stroke="url(#paint17_linear_606_1313)" stroke-width="7.78561"/>
<path d="M579.509 137.26C546.826 146.221 482.365 185.251 485.99 269.684C490.522 375.226 589.397 441.272 614.115 540.84C632.359 614.328 629.77 798.387 518.537 875.718" stroke="url(#paint18_linear_606_1313)" stroke-width="7.78561"/>
<path d="M529.778 124.774C497.094 133.735 432.634 172.766 436.259 257.199C440.791 362.74 539.665 428.787 564.384 528.354C582.628 601.842 580.039 785.902 468.805 863.232" stroke="url(#paint19_linear_606_1313)" stroke-width="7.78561"/>
<path d="M478.938 115.636C446.254 124.597 381.794 163.627 385.419 248.06C389.951 353.602 488.825 419.648 513.544 519.216C531.788 592.704 529.199 776.763 417.965 854.094" stroke="url(#paint20_linear_606_1313)" stroke-width="7.78561"/>
<path d="M427.347 109.84C394.664 118.801 330.203 157.831 333.828 242.264C338.36 347.806 437.234 413.852 461.953 513.42C480.197 586.908 477.608 770.967 366.375 848.298" stroke="url(#paint21_linear_606_1313)" stroke-width="7.78561"/>
<path d="M375.351 107.313C342.667 116.275 278.207 155.305 281.832 239.738C286.364 345.28 385.238 411.326 409.957 510.893C428.201 584.381 425.612 768.441 314.378 845.772" stroke="url(#paint22_linear_606_1313)" stroke-width="7.78561"/>
<path d="M323.267 107.93C290.583 116.891 226.123 155.921 229.748 240.354C234.28 345.896 333.154 411.942 357.873 511.509C376.117 584.998 373.528 769.057 262.294 846.388" stroke="url(#paint23_linear_606_1313)" stroke-width="7.78561"/>
<path d="M271.367 111.519C238.683 120.48 174.223 159.51 177.848 243.943C182.38 349.485 281.254 415.531 305.973 515.098C324.217 588.587 321.628 772.646 210.394 849.977" stroke="url(#paint24_linear_606_1313)" stroke-width="7.78561"/>
<path d="M219.883 117.899C187.2 126.86 122.739 165.891 126.364 250.324C130.896 355.865 229.771 421.912 254.489 521.479C272.733 594.967 270.144 779.027 158.911 856.357" stroke="url(#paint25_linear_606_1313)" stroke-width="7.78561"/>
<path d="M169.001 126.89C136.318 135.851 71.8573 174.881 75.4827 259.314C80.0144 364.856 178.889 430.902 203.607 530.469C221.851 603.958 219.262 788.017 108.029 865.348" stroke="url(#paint26_linear_606_1313)" stroke-width="7.78561"/>
<path d="M118.88 138.317C86.1967 147.278 21.7362 186.309 25.3616 270.742C29.8933 376.283 128.768 442.33 153.486 541.897C171.73 615.385 169.141 799.445 57.9077 876.775" stroke="url(#paint27_linear_606_1313)" stroke-width="7.78561"/>
<path d="M69.6653 152.04C36.9819 161.001 -27.4787 200.032 -23.8533 284.465C-19.3215 390.006 79.5528 456.052 104.271 555.62C122.516 629.108 119.926 813.167 8.69288 890.498" stroke="url(#paint28_linear_606_1313)" stroke-width="7.78561"/>
<defs>
<linearGradient id="paint0_linear_606_1313" x1="1441.61" y1="4" x2="1441.61" y2="742.458" gradientUnits="userSpaceOnUse">
<stop stop-color="white" stop-opacity="0"/>
<stop offset="1" stop-color="white"/>
</linearGradient>
<linearGradient id="paint1_linear_606_1313" x1="1397.1" y1="25.7822" x2="1397.1" y2="764.24" gradientUnits="userSpaceOnUse">
<stop stop-color="white" stop-opacity="0"/>
<stop offset="1" stop-color="white"/>
</linearGradient>
<linearGradient id="paint2_linear_606_1313" x1="1351.9" y1="46.6426" x2="1351.9" y2="785.101" gradientUnits="userSpaceOnUse">
<stop stop-color="white" stop-opacity="0"/>
<stop offset="1" stop-color="white"/>
</linearGradient>
<linearGradient id="paint3_linear_606_1313" x1="1306.07" y1="66.5928" x2="1306.07" y2="805.051" gradientUnits="userSpaceOnUse">
<stop stop-color="white" stop-opacity="0"/>
<stop offset="1" stop-color="white"/>
</linearGradient>
<linearGradient id="paint4_linear_606_1313" x1="1259.62" y1="85.5898" x2="1259.62" y2="824.048" gradientUnits="userSpaceOnUse">
<stop stop-color="white" stop-opacity="0"/>
<stop offset="1" stop-color="white"/>
</linearGradient>
<linearGradient id="paint5_linear_606_1313" x1="1212.55" y1="103.563" x2="1212.55" y2="842.022" gradientUnits="userSpaceOnUse">
<stop stop-color="white" stop-opacity="0"/>
<stop offset="1" stop-color="white"/>
</linearGradient>
<linearGradient id="paint6_linear_606_1313" x1="1164.85" y1="120.416" x2="1164.85" y2="858.874" gradientUnits="userSpaceOnUse">
<stop stop-color="white" stop-opacity="0"/>
<stop offset="1" stop-color="white"/>
</linearGradient>
<linearGradient id="paint7_linear_606_1313" x1="1116.49" y1="136.02" x2="1116.49" y2="874.478" gradientUnits="userSpaceOnUse">
<stop stop-color="white" stop-opacity="0"/>
<stop offset="1" stop-color="white"/>
</linearGradient>
<linearGradient id="paint8_linear_606_1313" x1="1067.47" y1="150.215" x2="1067.47" y2="888.673" gradientUnits="userSpaceOnUse">
<stop stop-color="white" stop-opacity="0"/>
<stop offset="1" stop-color="white"/>
</linearGradient>
<linearGradient id="paint9_linear_606_1313" x1="1017.78" y1="162.791" x2="1017.78" y2="901.249" gradientUnits="userSpaceOnUse">
<stop stop-color="white" stop-opacity="0"/>
<stop offset="1" stop-color="white"/>
</linearGradient>
<linearGradient id="paint10_linear_606_1313" x1="967.408" y1="173.488" x2="967.408" y2="911.946" gradientUnits="userSpaceOnUse">
<stop stop-color="white" stop-opacity="0"/>
<stop offset="1" stop-color="white"/>
</linearGradient>
<linearGradient id="paint11_linear_606_1313" x1="916.395" y1="181.978" x2="916.395" y2="920.436" gradientUnits="userSpaceOnUse">
<stop stop-color="white" stop-opacity="0"/>
<stop offset="1" stop-color="white"/>
</linearGradient>
<linearGradient id="paint12_linear_606_1313" x1="864.815" y1="187.838" x2="864.815" y2="926.296" gradientUnits="userSpaceOnUse">
<stop stop-color="white" stop-opacity="0"/>
<stop offset="1" stop-color="white"/>
</linearGradient>
<linearGradient id="paint13_linear_606_1313" x1="812.832" y1="190.542" x2="812.832" y2="929" gradientUnits="userSpaceOnUse">
<stop stop-color="white" stop-opacity="0"/>
<stop offset="1" stop-color="white"/>
</linearGradient>
<linearGradient id="paint14_linear_606_1313" x1="760.76" y1="189.441" x2="760.76" y2="927.899" gradientUnits="userSpaceOnUse">
<stop stop-color="white" stop-opacity="0"/>
<stop offset="1" stop-color="white"/>
</linearGradient>
<linearGradient id="paint15_linear_606_1313" x1="709.144" y1="183.79" x2="709.144" y2="922.248" gradientUnits="userSpaceOnUse">
<stop stop-color="white" stop-opacity="0"/>
<stop offset="1" stop-color="white"/>
</linearGradient>
<linearGradient id="paint16_linear_606_1313" x1="658.863" y1="172.825" x2="658.863" y2="911.283" gradientUnits="userSpaceOnUse">
<stop stop-color="white" stop-opacity="0"/>
<stop offset="1" stop-color="white"/>
</linearGradient>
<linearGradient id="paint17_linear_606_1313" x1="602.51" y1="153.012" x2="602.51" y2="891.47" gradientUnits="userSpaceOnUse">
<stop stop-color="white" stop-opacity="0"/>
<stop offset="1" stop-color="white"/>
</linearGradient>
<linearGradient id="paint18_linear_606_1313" x1="554.229" y1="137.26" x2="554.229" y2="875.718" gradientUnits="userSpaceOnUse">
<stop stop-color="white" stop-opacity="0"/>
<stop offset="1" stop-color="white"/>
</linearGradient>
<linearGradient id="paint19_linear_606_1313" x1="504.498" y1="124.774" x2="504.498" y2="863.232" gradientUnits="userSpaceOnUse">
<stop stop-color="white" stop-opacity="0"/>
<stop offset="1" stop-color="white"/>
</linearGradient>
<linearGradient id="paint20_linear_606_1313" x1="453.658" y1="115.636" x2="453.658" y2="854.094" gradientUnits="userSpaceOnUse">
<stop stop-color="white" stop-opacity="0"/>
<stop offset="1" stop-color="white"/>
</linearGradient>
<linearGradient id="paint21_linear_606_1313" x1="402.067" y1="109.84" x2="402.067" y2="848.298" gradientUnits="userSpaceOnUse">
<stop stop-color="white" stop-opacity="0"/>
<stop offset="1" stop-color="white"/>
</linearGradient>
<linearGradient id="paint22_linear_606_1313" x1="350.071" y1="107.313" x2="350.071" y2="845.772" gradientUnits="userSpaceOnUse">
<stop stop-color="white" stop-opacity="0"/>
<stop offset="1" stop-color="white"/>
</linearGradient>
<linearGradient id="paint23_linear_606_1313" x1="297.987" y1="107.93" x2="297.987" y2="846.388" gradientUnits="userSpaceOnUse">
<stop stop-color="white" stop-opacity="0"/>
<stop offset="1" stop-color="white"/>
</linearGradient>
<linearGradient id="paint24_linear_606_1313" x1="246.086" y1="111.519" x2="246.086" y2="849.977" gradientUnits="userSpaceOnUse">
<stop stop-color="white" stop-opacity="0"/>
<stop offset="1" stop-color="white"/>
</linearGradient>
<linearGradient id="paint25_linear_606_1313" x1="194.603" y1="117.899" x2="194.603" y2="856.357" gradientUnits="userSpaceOnUse">
<stop stop-color="white" stop-opacity="0"/>
<stop offset="1" stop-color="white"/>
</linearGradient>
<linearGradient id="paint26_linear_606_1313" x1="143.721" y1="126.89" x2="143.721" y2="865.348" gradientUnits="userSpaceOnUse">
<stop stop-color="white" stop-opacity="0"/>
<stop offset="1" stop-color="white"/>
</linearGradient>
<linearGradient id="paint27_linear_606_1313" x1="93.6001" y1="138.317" x2="93.6001" y2="876.775" gradientUnits="userSpaceOnUse">
<stop stop-color="white" stop-opacity="0"/>
<stop offset="1" stop-color="white"/>
</linearGradient>
<linearGradient id="paint28_linear_606_1313" x1="44.3852" y1="152.04" x2="44.3852" y2="890.498" gradientUnits="userSpaceOnUse">
<stop stop-color="white" stop-opacity="0"/>
<stop offset="1" stop-color="white"/>
</linearGradient>
</defs>
</svg>
