<svg width="750" height="500" viewBox="0 0 750 500" fill="none" xmlns="http://www.w3.org/2000/svg">
<path d="M750 382.399H0V382.649H750V382.399Z" fill="#EBEBEB"/>
<path d="M167.49 390.79H117.81V391.04H167.49V390.79Z" fill="#EBEBEB"/>
<path d="M245.25 398H199.995V398.25H245.25V398Z" fill="#EBEBEB"/>
<path d="M142.65 400.069H85.2754V400.319H142.65V400.069Z" fill="#EBEBEB"/>
<path d="M674.85 399.529H651V399.779H674.85V399.529Z" fill="#EBEBEB"/>
<path d="M646.185 399.529H587.205V399.779H646.185V399.529Z" fill="#EBEBEB"/>
<path d="M420.495 390.659H375V390.909H420.495V390.659Z" fill="#EBEBEB"/>
<path d="M535.155 390.659H427.005V390.909H535.155V390.659Z" fill="#EBEBEB"/>
<path d="M355.5 337.8H65.8654C63.5965 337.797 61.4218 337.195 59.8188 336.124C58.2157 335.053 57.3154 333.603 57.3154 332.09V60.66C57.3352 59.156 58.2442 57.718 59.8451 56.6582C61.446 55.5985 63.6094 55.0026 65.8654 55H355.5C357.772 55 359.951 55.6016 361.557 56.6724C363.163 57.7433 364.065 59.1956 364.065 60.71V332.09C364.065 333.604 363.163 335.057 361.557 336.128C359.951 337.198 357.772 337.8 355.5 337.8ZM65.8654 55.2C63.6959 55.2026 61.6166 55.7791 60.0839 56.8027C58.5512 57.8264 57.6904 59.2136 57.6904 60.66V332.09C57.6904 333.536 58.5512 334.924 60.0839 335.947C61.6166 336.971 63.6959 337.547 65.8654 337.55H355.5C357.671 337.547 359.752 336.971 361.287 335.948C362.822 334.924 363.686 333.537 363.69 332.09V60.66C363.686 59.2127 362.822 57.8255 361.287 56.8021C359.752 55.7787 357.671 55.2026 355.5 55.2H65.8654Z" fill="#EBEBEB"/>
<path d="M679.965 337.8H390.315C388.045 337.797 385.868 337.195 384.263 336.125C382.658 335.054 381.754 333.604 381.75 332.09V60.66C381.774 59.1551 382.686 57.7171 384.289 56.6576C385.893 55.5981 388.058 55.0025 390.315 55H679.965C682.218 55.0052 684.378 55.6022 685.976 56.6617C687.573 57.7212 688.48 59.1578 688.5 60.66V332.09C688.5 333.601 687.602 335.05 686.002 336.121C684.402 337.191 682.231 337.795 679.965 337.8ZM390.315 55.2C388.144 55.2026 386.063 55.7787 384.528 56.8021C382.993 57.8255 382.129 59.2127 382.125 60.66V332.09C382.129 333.537 382.993 334.924 384.528 335.948C386.063 336.971 388.144 337.547 390.315 337.55H679.965C682.136 337.547 684.217 336.971 685.752 335.948C687.287 334.924 688.151 333.537 688.155 332.09V60.66C688.151 59.2127 687.287 57.8255 685.752 56.8021C684.217 55.7787 682.136 55.2026 679.965 55.2H390.315Z" fill="#EBEBEB"/>
<path d="M643.917 236.109L620.933 220.786L409.151 361.974L432.135 377.297L643.917 236.109Z" fill="#EBEBEB"/>
<path d="M542.895 303.449L519.915 288.119L488.58 309.009L509.655 331.419L542.895 303.449Z" fill="#E0E0E0"/>
<path d="M432.131 377.296L439.789 382.401L651.571 241.213L643.913 236.108L432.131 377.296Z" fill="#E0E0E0"/>
<path d="M432.139 225.885L409.154 241.208L620.936 382.396L643.921 367.073L432.139 225.885Z" fill="#EBEBEB"/>
<path d="M643.919 367.075L651.577 361.97L439.795 220.782L432.137 225.887L643.919 367.075Z" fill="#E0E0E0"/>
<path d="M264.303 268.548L246.409 256.619L81.5826 366.504L99.4759 378.432L264.303 268.548Z" fill="#EBEBEB"/>
<path d="M185.67 320.949L167.775 309.029L143.4 325.289L159.795 342.719L185.67 320.949Z" fill="#E0E0E0"/>
<path d="M99.4639 378.429L105.425 382.403L270.251 272.519L264.29 268.545L99.4639 378.429Z" fill="#E0E0E0"/>
<path d="M99.4842 260.592L81.5908 272.521L246.417 382.405L264.311 370.476L99.4842 260.592Z" fill="#EBEBEB"/>
<path d="M264.282 370.469L270.243 366.495L105.417 256.611L99.4557 260.585L264.282 370.469Z" fill="#E0E0E0"/>
<path d="M478.305 275.109H451.89V382.389H478.305V275.109Z" fill="#F5F5F5"/>
<path d="M478.305 319.689H451.89V332.559L478.305 328.759V319.689Z" fill="#EBEBEB"/>
<path d="M478.29 382.399H487.095V275.119H478.29V382.399Z" fill="#EBEBEB"/>
<path d="M201.6 275.109H175.185V382.389H201.6V275.109Z" fill="#F5F5F5"/>
<path d="M201.585 319.689H175.185V332.559L201.585 328.759V319.689Z" fill="#EBEBEB"/>
<path d="M201.585 382.399H210.39L210.39 275.119H201.585L201.585 382.399Z" fill="#EBEBEB"/>
<path d="M492.165 290.84H155.04V323.86H492.165V290.84Z" fill="#F5F5F5"/>
<path d="M492.165 323.85H497.115V290.83H492.165V323.85Z" fill="#EBEBEB"/>
<path d="M364.095 257.17H298.185L251.58 288.24V332.18L298.185 363.25H364.095L410.7 332.18V288.24L364.095 257.17Z" fill="#FAFAFA"/>
<path d="M361.08 262.02H301.2L258.855 290.25V330.17L301.2 358.4H361.08L403.425 330.17V290.25L361.08 262.02Z" fill="#E0E0E0"/>
<path d="M273.285 314.82L281.715 314.32C281.785 315.359 282.162 316.379 282.825 317.32C283.172 317.816 283.726 318.235 284.42 318.528C285.114 318.82 285.919 318.974 286.74 318.97C287.305 319 287.872 318.94 288.394 318.793C288.916 318.647 289.377 318.42 289.74 318.13C290.438 317.569 290.806 316.858 290.775 316.13C290.783 315.44 290.433 314.769 289.785 314.23C288.521 313.447 286.968 312.902 285.285 312.65C282.094 312.111 279.206 310.964 276.975 309.35C275.231 307.85 274.343 305.986 274.47 304.09C274.45 302.71 274.885 301.345 275.745 300.09C276.562 298.879 277.905 297.858 279.6 297.16C281.754 296.371 284.196 296.001 286.65 296.09C288.172 296.02 289.699 296.156 291.14 296.49C292.58 296.823 293.905 297.347 295.035 298.03C296.955 299.32 298.035 301.38 298.47 304.2L290.115 304.67C290.036 303.707 289.553 302.778 288.72 301.99C288.347 301.709 287.884 301.488 287.364 301.344C286.844 301.2 286.282 301.137 285.72 301.16C285.288 301.141 284.854 301.186 284.452 301.294C284.049 301.401 283.688 301.567 283.395 301.78C282.869 302.204 282.592 302.74 282.615 303.29C282.607 303.72 282.837 304.136 283.26 304.46C284.102 304.972 285.14 305.318 286.26 305.46C289.204 305.969 292.012 306.779 294.585 307.86C296.197 308.616 297.464 309.654 298.245 310.86C299.025 312.129 299.413 313.489 299.385 314.86C299.421 316.521 298.909 318.166 297.885 319.68C296.991 321.058 295.503 322.227 293.61 323.04C291.518 323.847 289.126 324.243 286.71 324.18C281.84 324.18 278.465 323.287 276.585 321.5C274.571 319.522 273.428 317.208 273.285 314.82Z" fill="white"/>
<path d="M301.755 296.6H328.755V303.33H319.755V323.82H310.89V303.33H301.89L301.755 296.6Z" fill="white"/>
<path d="M330.21 310.23C330.21 305.79 331.515 302.33 334.125 299.85C335.388 298.705 337.035 297.773 338.935 297.128C340.835 296.484 342.936 296.146 345.067 296.14C347.199 296.134 349.303 296.461 351.211 297.095C353.12 297.729 354.778 298.652 356.055 299.79C358.685 302.223 360 305.627 360 310C360.125 312.656 359.551 315.306 358.305 317.83C357.37 319.686 355.676 321.331 353.415 322.58C351.136 323.745 348.32 324.346 345.45 324.28C342.611 324.356 339.807 323.842 337.425 322.81C335.067 321.629 333.275 320.017 332.265 318.17C330.811 315.638 330.113 312.941 330.21 310.23ZM339.075 310.23C339.075 312.983 339.615 314.957 340.695 316.15C341.115 316.687 341.747 317.136 342.523 317.45C343.299 317.764 344.19 317.93 345.098 317.93C346.005 317.93 346.896 317.764 347.672 317.45C348.448 317.136 349.08 316.687 349.5 316.15C350.55 314.97 351 312.86 351 309.82C351.2 307.885 350.642 305.948 349.38 304.2C348.945 303.658 348.296 303.207 347.502 302.894C346.709 302.582 345.801 302.422 344.88 302.43C343.984 302.437 343.107 302.609 342.348 302.926C341.588 303.244 340.975 303.695 340.575 304.23C339.575 305.483 339.075 307.497 339.075 310.27V310.23Z" fill="white"/>
<path d="M364.665 296.599H379.395C380.774 296.538 382.155 296.705 383.413 297.085C384.672 297.466 385.77 298.048 386.61 298.779C388.367 300.619 389.202 302.783 388.995 304.959C389.198 307.238 388.281 309.498 386.385 311.399C385.442 312.189 384.223 312.813 382.835 313.218C381.446 313.622 379.931 313.794 378.42 313.719H373.5V323.819H364.605L364.665 296.599ZM373.5 308.209H375.675C376.333 308.257 376.998 308.206 377.621 308.059C378.244 307.911 378.81 307.672 379.275 307.359C379.994 306.744 380.36 305.978 380.31 305.199C380.383 304.428 380.101 303.66 379.5 302.999C379.096 302.673 378.574 302.421 377.984 302.265C377.394 302.11 376.755 302.056 376.125 302.109H373.5V308.209Z" fill="white"/>
<path d="M617.025 102.75C615.459 102.754 613.898 102.879 612.375 103.12C610.395 100.12 606 98.2498 600.075 98.2498C595.538 98.3239 591.133 99.2797 587.4 101C584.88 95.3598 577.335 91.5898 566.805 91.5898C551.805 91.5898 536.13 99.2298 530.46 108.99C529.073 108.773 527.654 108.666 526.23 108.67H524.82C511.905 109.25 512.82 122.25 525.825 122.25H618C619.595 122.253 621.17 122.006 622.595 121.529C624.021 121.051 625.257 120.356 626.205 119.5C627.796 118.06 629.008 116.45 629.79 114.74C632.64 108.12 627 102.75 617.025 102.75Z" fill="#F0F0F0"/>
<path d="M257.04 45.1296C255.03 36.2496 244.41 30.0596 228.885 30.0596C216.165 30.0596 203.055 34.2096 193.29 40.5996C190.442 38.9531 186.768 38.082 183 38.1596C172.23 38.1596 160.935 43.9796 157.755 51.1596C157.284 52.2193 157.016 53.3148 156.96 54.4196L156.735 54.5196C147.825 58.5196 152.235 67.9096 163.095 67.9096H258C259.811 67.9193 261.597 67.6271 263.195 67.0595C264.793 66.4919 266.153 65.6669 267.15 64.6596C268.633 63.1512 269.78 61.5074 270.555 59.7796C273.87 52.1396 267.915 45.8496 257.04 45.1296Z" fill="#F0F0F0"/>
<path d="M370.32 144.299C367.56 132.089 352.965 123.579 331.62 123.579C314.115 123.579 296.1 129.289 282.69 138.069C278.785 135.799 273.737 134.599 268.56 134.709C253.77 134.709 238.215 142.709 233.85 152.579C233.201 154.035 232.833 155.541 232.755 157.059L232.455 157.189C220.17 162.759 226.26 175.599 241.11 175.599H366C371.064 175.623 376.005 174.561 380.094 172.569C384.184 170.578 387.204 167.763 388.71 164.539V164.419C393.48 153.929 385.275 145.279 370.32 144.299Z" fill="#F5F5F5"/>
<path d="M375 427.56C535.624 427.56 665.835 422.492 665.835 416.24C665.835 409.988 535.624 404.92 375 404.92C214.376 404.92 84.165 409.988 84.165 416.24C84.165 422.492 214.376 427.56 375 427.56Z" fill="#F5F5F5"/>
<path d="M193.11 128.92H117.81V106.26L193.11 46.5898H229.11V107.59H247.785V128.97H229.14V147.51H193.14L193.11 128.92ZM193.11 107.54V76.3298L153.33 107.54H193.11Z" fill="#263238"/>
<path d="M547.364 46.5898V147.46H505.499V81.3598C499.392 84.5222 492.865 87.3071 485.999 89.6798C478.331 92.1459 470.369 94.1829 462.194 95.7698V73.1798C476.264 70.1465 487.189 66.5132 494.969 62.2798C502.758 58.0365 509.004 52.6723 513.239 46.5898H547.364Z" fill="#263238"/>
<path d="M467.73 173.19C467.07 173.98 466.56 174.55 465.975 175.19C465.39 175.83 464.805 176.43 464.22 177.05C463.035 178.27 461.775 179.45 460.5 180.63C457.928 182.996 455.169 185.27 452.235 187.44C449.248 189.668 446.035 191.756 442.62 193.69C439.071 195.741 435.216 197.544 431.115 199.07C429.824 199.572 428.475 200.004 427.08 200.36C425.621 200.731 424.115 201.012 422.58 201.2C419.842 201.516 417.055 201.603 414.285 201.46C409.491 201.181 404.78 200.454 400.29 199.3C396.146 198.247 392.133 196.976 388.29 195.5C384.512 194.063 380.902 192.438 377.49 190.64C376.524 190.118 375.868 189.383 375.639 188.568C375.41 187.753 375.622 186.91 376.238 186.19C376.854 185.469 377.833 184.918 379.002 184.634C380.171 184.351 381.453 184.353 382.62 184.64L382.89 184.71C389.952 186.593 397.244 188.068 404.685 189.12C407.963 189.576 411.314 189.761 414.66 189.67C415.966 189.633 417.259 189.475 418.5 189.2C418.963 189.1 419.41 188.969 419.835 188.81C420.255 188.65 420.33 188.6 421.185 188.21C426.926 185.397 432.077 182.084 436.5 178.36C438.855 176.44 441.15 174.45 443.325 172.36C444.435 171.36 445.485 170.29 446.55 169.25L448.05 167.69L449.46 166.22L449.7 165.97C451.185 164.457 453.491 163.385 456.136 162.98C458.78 162.574 461.557 162.867 463.884 163.797C466.211 164.727 467.909 166.221 468.62 167.966C469.331 169.712 469.002 171.573 467.7 173.16L467.73 173.19Z" fill="#FF8B7B"/>
<path d="M385.11 185.46L373.605 180.38L368.73 190.58C371.036 191.39 373.626 191.771 376.228 191.683C378.831 191.595 381.35 191.041 383.52 190.08L385.11 185.46Z" fill="#FF8B7B"/>
<path d="M363 181.911L362.1 185.161C361.937 185.737 362.022 186.332 362.346 186.877C362.67 187.422 363.219 187.895 363.93 188.241L368.685 190.581L373.56 180.381L368.94 179.481C368.31 179.357 367.648 179.323 366.997 179.381C366.346 179.439 365.72 179.587 365.16 179.816C364.601 180.045 364.119 180.35 363.747 180.71C363.375 181.071 363.12 181.48 363 181.911Z" fill="#FF8B7B"/>
<path d="M468.09 156.94C456.375 158.17 444.525 167.34 437.4 175.89C442.079 181.328 449.169 185.667 457.695 188.31C457.695 188.31 471.585 179.55 477.195 173.07C482.805 166.59 479.115 155.77 468.09 156.94Z" fill="#FFBDD0"/>
<path opacity="0.2" d="M468.09 156.94C456.375 158.17 444.525 167.34 437.4 175.89C442.079 181.328 449.169 185.667 457.695 188.31C457.695 188.31 471.585 179.55 477.195 173.07C482.805 166.59 479.115 155.77 468.09 156.94Z" fill="black"/>
<path d="M437.85 173.93C436.765 174.749 435.915 175.695 435.345 176.72C438.27 179.72 445.215 187.72 458.175 189.42C459.434 188.95 460.398 188.194 460.89 187.29C460.89 187.29 445.98 182.39 437.85 173.93Z" fill="#263238"/>
<path d="M515.296 156.671C501.134 155.09 486.714 154.814 472.441 155.851C461.791 156.761 453.841 163.291 453.916 170.441C453.969 177.9 454.972 185.344 456.916 192.691C453.001 206.441 451.591 225.131 455.716 229.251L529.501 229.941C532.666 224.061 528.691 198.611 532.906 172.041C533.477 168.463 531.97 164.875 528.694 162.016C525.419 159.157 520.623 157.244 515.296 156.671Z" fill="#FFBDD0"/>
<path opacity="0.2" d="M487.5 229.31C483.285 207.18 487.5 170.17 487.5 169.79L489 169.87C489 170.24 484.815 207.15 489 229.18L487.5 229.31Z" fill="black"/>
<path d="M479.475 156.54C482.01 155.91 481.065 154.97 481.065 154.97C481.065 154.97 469.545 154.97 461.565 156.4C460.35 157.26 461.655 158.4 461.655 158.4C461.655 158.4 471.93 158.42 479.475 156.54Z" fill="#263238"/>
<path opacity="0.2" d="M484.185 155C484.185 155 479.43 160.86 485.79 166.19C480.75 166.19 477.495 171.92 477.495 171.92C477.495 171.92 467.655 162.8 480.24 155.51C480.945 154.78 484.185 155 484.185 155Z" fill="black"/>
<path d="M479.1 157.84C477.87 161.42 488.685 168.17 488.685 168.17C488.685 168.17 507.81 162.01 509.025 158.48L479.1 157.84Z" fill="white"/>
<path opacity="0.2" d="M522.271 178.79C520.231 181.41 522.946 192.79 530.821 197.6C530.911 192.9 531.121 187.91 531.571 182.78L522.271 178.79Z" fill="black"/>
<path d="M505.035 137.25L485.295 145.89C487.635 149.71 488.73 153.69 481.98 155.53C481.113 155.762 480.371 156.162 479.847 156.678C479.324 157.194 479.045 157.802 479.045 158.425C479.045 159.048 479.324 159.656 479.847 160.172C480.371 160.688 481.113 161.088 481.98 161.32C483.968 161.802 486.049 162.095 488.16 162.19C494.505 162.6 500.901 161.911 506.73 160.19C507.344 159.986 507.884 159.694 508.311 159.337C508.739 158.979 509.045 158.564 509.208 158.119C509.371 157.675 509.387 157.212 509.254 156.763C509.121 156.314 508.843 155.89 508.44 155.52C503.265 150.64 503.895 142.16 505.035 137.25Z" fill="#FF8B7B"/>
<path opacity="0.2" d="M496.996 140.771L485.311 145.881C485.967 146.926 486.469 148.011 486.811 149.12C491.476 148.94 497.566 146.481 497.686 143.911C497.801 142.843 497.566 141.771 496.996 140.771Z" fill="black"/>
<path d="M483.12 120.77C488.145 120.7 489.51 125.51 487.62 127.14C491.43 127.69 493.275 130.66 492.12 132.14C490.965 133.62 486.555 135.29 482.625 134.63C475.89 133.51 474.735 129.78 476.625 128.08C473.025 126.1 474.855 120 483.12 120.77Z" fill="#263238"/>
<path opacity="0.2" d="M483.12 120.77C488.145 120.7 489.51 125.51 487.62 127.14C491.43 127.69 493.275 130.66 492.12 132.14C490.965 133.62 486.555 135.29 482.625 134.63C475.89 133.51 474.735 129.78 476.625 128.08C473.025 126.1 474.855 120 483.12 120.77Z" fill="white"/>
<path d="M511.5 128.7C510 136.59 509.715 141.26 503.31 145.04C493.665 150.71 479.31 146.35 477.27 138.29C475.41 131.04 478.185 119.35 490.14 116.77C492.789 116.208 495.607 116.101 498.335 116.46C501.062 116.818 503.609 117.63 505.74 118.82C507.87 120.01 509.516 121.54 510.523 123.267C511.53 124.994 511.866 126.863 511.5 128.7Z" fill="#FF8B7B"/>
<path d="M510.075 134.73C505.05 134.73 503.94 129.85 505.86 128.27C502.08 127.62 500.4 124.61 501.57 123.13C502.74 121.65 507.285 120.13 511.185 120.86C517.86 122.14 518.835 125.86 516.9 127.55C520.5 129.65 518.295 135.67 510.075 134.73Z" fill="#263238"/>
<path opacity="0.2" d="M510.075 134.73C505.05 134.73 503.94 129.85 505.86 128.27C502.08 127.62 500.4 124.61 501.57 123.13C502.74 121.65 507.285 120.13 511.185 120.86C517.86 122.14 518.835 125.86 516.9 127.55C520.5 129.65 518.295 135.67 510.075 134.73Z" fill="white"/>
<path opacity="0.2" d="M498 130C498.604 129.89 499.233 129.861 499.854 129.915C500.474 129.968 501.073 130.102 501.615 130.31C500.391 130.362 499.164 130.256 498 130Z" fill="black"/>
<path opacity="0.2" d="M498 130.54C498.571 130.519 499.143 130.581 499.674 130.723C500.205 130.864 500.683 131.082 501.075 131.36C499.975 131.234 498.927 130.954 498 130.54Z" fill="black"/>
<path opacity="0.2" d="M479.205 129.39C479.067 129.336 478.914 129.301 478.755 129.287C478.596 129.273 478.434 129.281 478.28 129.31C478.126 129.339 477.982 129.388 477.857 129.455C477.733 129.523 477.63 129.606 477.555 129.7C478.144 129.746 478.738 129.635 479.205 129.39Z" fill="black"/>
<path opacity="0.2" d="M479.22 130.001C479.22 130.001 478.305 129.911 477.825 130.821C478.399 130.642 478.883 130.358 479.22 130.001Z" fill="black"/>
<path d="M515.07 136.74C513.693 138.39 511.433 139.633 508.74 140.22C505.32 140.88 503.955 138.6 505.185 136.22C506.31 134.09 509.415 131.17 512.685 131.56C515.955 131.95 516.87 134.63 515.07 136.74Z" fill="#FF8B7B"/>
<path d="M495.601 130C495.601 130.64 494.986 131.14 494.341 131.11C493.696 131.08 493.246 130.53 493.321 129.88C493.396 129.23 493.936 128.74 494.581 128.77C495.226 128.8 495.676 129.37 495.601 130Z" fill="#263238"/>
<path d="M490.801 141.75C489.571 141.91 488.446 141.59 488.296 141.05C488.146 140.51 489.046 139.95 490.276 139.79C491.506 139.63 492.631 139.95 492.781 140.49C492.931 141.03 492.001 141.6 490.801 141.75Z" fill="#263238"/>
<path d="M482.476 129.31C482.476 129.95 481.846 130.45 481.216 130.42C480.586 130.39 480.106 129.84 480.181 129.19C480.256 128.54 480.811 128.05 481.441 128.08C482.071 128.11 482.536 128.66 482.476 129.31Z" fill="#263238"/>
<path d="M485.46 135.75C478.44 136.07 477.09 138.35 478.32 139.35C479.55 140.35 482.55 139.35 482.55 139.35C482.55 139.35 488.235 140.16 489.9 138.95C492.585 139.71 496.68 138.29 495.525 137.21C494.37 136.13 491.475 135.47 485.46 135.75Z" fill="#263238"/>
<path opacity="0.2" d="M485.46 135.75C478.44 136.07 477.09 138.35 478.32 139.35C479.55 140.35 482.55 139.35 482.55 139.35C482.55 139.35 488.235 140.16 489.9 138.95C492.585 139.71 496.68 138.29 495.525 137.21C494.37 136.13 491.475 135.47 485.46 135.75Z" fill="white"/>
<path d="M485.67 130C484.321 131.915 482.58 133.695 480.495 135.29C481.125 135.637 481.86 135.89 482.649 136.029C483.439 136.169 484.265 136.193 485.07 136.1L485.67 130Z" fill="#FF5652"/>
<path d="M497.715 126.64C497.81 126.632 497.902 126.612 497.985 126.58C498.049 126.552 498.103 126.517 498.146 126.475C498.189 126.434 498.219 126.387 498.234 126.338C498.249 126.288 498.25 126.238 498.235 126.188C498.221 126.139 498.192 126.092 498.15 126.05C497.671 125.532 497.012 125.099 496.229 124.787C495.445 124.476 494.561 124.295 493.65 124.26C493.499 124.26 493.354 124.3 493.247 124.371C493.14 124.442 493.08 124.539 493.08 124.64C493.08 124.741 493.14 124.837 493.247 124.908C493.354 124.98 493.499 125.02 493.65 125.02C494.368 125.054 495.062 125.203 495.675 125.454C496.289 125.704 496.803 126.049 497.175 126.46C497.231 126.52 497.311 126.57 497.406 126.601C497.502 126.633 497.609 126.646 497.715 126.64Z" fill="#263238"/>
<path d="M478.17 125.89C478.265 125.889 478.358 125.873 478.441 125.843C478.524 125.814 478.596 125.772 478.65 125.72C479.034 125.32 479.555 124.986 480.171 124.746C480.786 124.506 481.479 124.367 482.19 124.34C482.342 124.34 482.487 124.3 482.593 124.229C482.7 124.158 482.76 124.061 482.76 123.96C482.76 123.859 482.7 123.763 482.593 123.691C482.487 123.62 482.342 123.58 482.19 123.58C481.288 123.604 480.408 123.773 479.624 124.073C478.841 124.372 478.177 124.793 477.69 125.3C477.649 125.341 477.62 125.387 477.606 125.436C477.592 125.485 477.592 125.535 477.608 125.583C477.623 125.632 477.653 125.678 477.696 125.718C477.738 125.759 477.792 125.794 477.855 125.82C477.945 125.867 478.056 125.892 478.17 125.89Z" fill="#263238"/>
<path d="M497.536 310.8C500.896 274.72 500.146 237.7 494.311 229.64L455.686 229.25C455.686 229.25 460.501 289.57 462.001 313.6C463.576 338.6 466.936 403.6 466.936 403.6L489.286 403.78C489.286 403.78 502.396 338.71 497.536 310.8Z" fill="#263238"/>
<path opacity="0.2" d="M499.2 255.65C486.015 265.25 492.18 291.83 497.925 306.47C499.5 288.16 499.92 269.93 499.2 255.65Z" fill="black"/>
<path d="M489 405.66L469.35 405.49C468.106 405.448 466.878 405.691 465.87 406.18C460.17 409.18 455.835 409.27 449.37 410.04C441.615 410.97 445.455 416.17 451.17 416.23C460.62 416.33 459.825 416.1 467.895 416.18L473.475 416.23L475.995 414.52L478.23 416.23H488.55C488.818 416.234 489.085 416.2 489.331 416.13C489.578 416.06 489.799 415.955 489.981 415.824C490.162 415.692 490.3 415.537 490.384 415.367C490.469 415.197 490.498 415.018 490.47 414.84L489 405.66Z" fill="#263238"/>
<path d="M490.5 407C490.155 407 464.715 406.46 464.715 406.46L463.68 400.37L491.895 400.79L490.5 407Z" fill="#FFBDD0"/>
<path d="M542.895 310.8C538.755 274.72 537 238 529.5 229.94L482.925 229.54C482.925 229.54 501.45 289.54 507.96 313.6C514.725 338.6 532.935 403.6 532.935 403.6L555.33 403.78C555.33 403.78 553.5 338.71 542.895 310.8Z" fill="#263238"/>
<path d="M556.395 405.66L536.73 405.49C535.49 405.449 534.268 405.693 533.265 406.18C527.565 409.18 530.175 409.27 523.71 410.04C515.955 410.97 519.78 416.17 525.495 416.23C534.945 416.33 534.165 416.1 542.22 416.18L550.98 416.23L552.135 414.52L553.635 416.23H555.945C556.209 416.229 556.47 416.192 556.711 416.12C556.953 416.048 557.168 415.943 557.345 415.812C557.522 415.681 557.655 415.527 557.737 415.36C557.819 415.192 557.847 415.015 557.82 414.84L556.395 405.66Z" fill="#263238"/>
<path d="M557.88 407C557.52 407 531.975 406.46 531.975 406.46L529.5 400.33L557.805 400.75L557.88 407Z" fill="#FFBDD0"/>
<path d="M484.966 154.29C484.966 154.29 479.431 160.86 485.791 166.19C480.751 166.19 477.451 169.83 477.451 169.83C477.451 169.83 470.746 160.83 480.661 154.83C481.351 154.15 484.966 154.29 484.966 154.29Z" fill="#FFBDD0"/>
<path d="M531.495 232.68C505.14 233.41 474.915 233.63 456.015 232.68C455.912 232.677 455.81 232.659 455.719 232.626C455.628 232.593 455.55 232.546 455.49 232.49C454.251 231.09 453.68 229.472 453.855 227.85C453.87 227.731 453.953 227.62 454.087 227.54C454.221 227.46 454.395 227.417 454.575 227.42C479.52 227.87 504.315 227.85 530.385 227.42C530.528 227.418 530.669 227.445 530.789 227.497C530.909 227.548 531.004 227.623 531.06 227.71C531.932 229.15 532.311 230.701 532.17 232.25C532.159 232.365 532.083 232.473 531.958 232.553C531.833 232.632 531.668 232.678 531.495 232.68Z" fill="#263238"/>
<path opacity="0.2" d="M531.495 232.68C505.14 233.41 474.915 233.63 456.015 232.68C455.912 232.677 455.81 232.659 455.719 232.626C455.628 232.593 455.55 232.546 455.49 232.49C454.251 231.09 453.68 229.472 453.855 227.85C453.87 227.731 453.953 227.62 454.087 227.54C454.221 227.46 454.395 227.417 454.575 227.42C479.52 227.87 504.315 227.85 530.385 227.42C530.528 227.418 530.669 227.445 530.789 227.497C530.909 227.548 531.004 227.623 531.06 227.71C531.932 229.15 532.311 230.701 532.17 232.25C532.159 232.365 532.083 232.473 531.958 232.553C531.833 232.632 531.668 232.678 531.495 232.68Z" fill="black"/>
<path d="M480 227.14C479.688 229.351 479.957 231.581 480.795 233.73C486.51 234.32 498.24 233.88 498.24 233.88C498.41 231.664 498.29 229.442 497.88 227.24C488.88 227 480 227.14 480 227.14Z" fill="white"/>
<path d="M532.695 166.72L533.55 167.23L534.225 167.65L535.5 168.47C536.325 169.01 537.075 169.55 537.84 170.1C539.34 171.19 540.765 172.32 542.115 173.46C544.812 175.718 547.316 178.075 549.615 180.52C554.093 185.351 557.875 190.454 560.91 195.76C561.315 196.47 561.63 196.9 562.2 198.11C562.651 199.089 562.973 200.093 563.16 201.11C563.436 202.89 563.4 204.686 563.055 206.46C562.41 209.518 561.201 212.51 559.455 215.37C557.858 218.025 555.983 220.601 553.845 223.08C551.75 225.516 549.41 227.855 546.84 230.08C546.076 230.733 544.989 231.185 543.773 231.354C542.557 231.523 541.29 231.4 540.198 231.005C539.106 230.61 538.259 229.97 537.808 229.199C537.357 228.427 537.331 227.573 537.735 226.79L537.825 226.62C540.426 221.925 542.546 217.117 544.17 212.23C544.906 210.047 545.288 207.818 545.31 205.58C545.313 204.713 545.152 203.85 544.83 203.01C544.462 202.249 543.958 201.521 543.33 200.84C540.022 196.419 536.269 192.153 532.095 188.07C530.04 186.07 527.85 184.07 525.6 182.25C524.475 181.31 523.305 180.42 522.15 179.54L520.41 178.27L519.57 177.68L519.18 177.41L518.925 177.25C516.822 176.031 515.532 174.306 515.338 172.453C515.144 170.6 516.062 168.772 517.89 167.37C519.718 165.968 522.306 165.108 525.086 164.979C527.865 164.85 530.607 165.461 532.71 166.68L532.695 166.72Z" fill="#FF8B7B"/>
<path d="M519.765 158.06C531.45 159.41 543.09 168.69 550.035 177.31C545.245 182.698 538.072 186.967 529.5 189.53C529.5 189.53 515.79 180.63 510.315 174.11C504.84 167.59 508.77 156.79 519.765 158.06Z" fill="#FFBDD0"/>
<path d="M549.63 175.34C550.693 176.174 551.521 177.129 552.075 178.16C549.075 181.16 541.965 189.09 528.96 190.64C527.714 190.156 526.772 189.389 526.305 188.48C526.305 188.48 541.32 183.72 549.63 175.34Z" fill="#263238"/>
<path d="M511.305 157.36C508.89 156.67 509.805 155.76 509.805 155.76C509.805 155.76 520.92 156.02 528.525 157.63C529.65 158.52 528.33 159.63 528.33 159.63C528.33 159.63 518.475 159.41 511.305 157.36Z" fill="#263238"/>
<path opacity="0.2" d="M508.395 155.56C508.395 155.56 505.875 161.42 494.355 166.2C499.395 166.2 502.77 172.33 502.77 172.33C502.77 172.33 513.27 164.11 510.84 156C510.135 155.28 508.395 155.56 508.395 155.56Z" fill="black"/>
<path d="M508.065 154.5C508.065 154.5 505.065 160.84 494.355 166.2C499.395 166.2 502.89 169.83 502.89 169.83C502.89 169.83 513.21 164.11 510.84 156C510.056 155.394 509.116 154.887 508.065 154.5Z" fill="#FFBDD0"/>
<path d="M518.865 178.57C518.175 187.21 509.97 189.27 508.815 189.27C507.66 189.27 499.815 187.21 500.505 178.57L509.88 176.11L518.865 178.57Z" fill="white"/>
<path d="M539.055 226.101L529.815 231.401L542.07 236.711C542.07 236.711 549.57 231.231 545.85 228.111L539.055 226.101Z" fill="#FF8B7B"/>
<path d="M528.78 239.81L533.535 241.18C534.453 241.447 535.483 241.487 536.441 241.295C537.4 241.103 538.225 240.69 538.77 240.13L542.07 236.71L529.815 231.4L526.62 236.05C526.386 236.391 526.256 236.76 526.238 237.135C526.221 237.509 526.315 237.883 526.516 238.233C526.717 238.583 527.021 238.903 527.41 239.174C527.799 239.444 528.264 239.661 528.78 239.81Z" fill="#FF8B7B"/>
<path d="M476.55 119.13C468.315 119.88 471.075 121.62 489.435 123.18C507.795 124.74 512.4 123.51 512.4 123.51C512.4 123.51 491.31 119.1 476.55 119.13Z" fill="#263238"/>
<path d="M518.086 125.89C518.086 125.89 501.961 121.52 476.551 119.13C476.236 116.64 479.311 114 479.311 114C479.311 114 473.641 112.11 475.396 108.5C477.151 104.89 485.266 105.36 494.731 102.5C498.196 105.04 507.721 109.17 514.231 109.7C515.836 111.91 520.036 117.44 526.846 119.57C526.741 121.98 519.976 122.57 519.976 122.57C520.006 123.179 519.855 123.787 519.531 124.356C519.206 124.926 518.715 125.448 518.086 125.89Z" fill="#FFBDD0"/>
<path opacity="0.3" d="M519.96 122.57C514.065 119 493.125 112.48 479.31 114C479.31 114 476.235 116.65 476.55 119.13C501.96 121.52 518.085 125.89 518.085 125.89C518.712 125.447 519.2 124.926 519.522 124.356C519.844 123.786 519.993 123.179 519.96 122.57Z" fill="black"/>
<path d="M497.16 109.84C495.345 116 489.045 117.11 488.16 117.05C487.275 116.99 481.875 115.17 483.66 109.05L490.905 107.71L497.16 109.84Z" fill="white"/>
<path d="M377.625 210.78C376.709 210.779 375.824 210.555 375.139 210.15C374.454 209.745 374.015 209.186 373.905 208.58L363.195 150.39C363.073 149.727 363.352 149.059 363.97 148.533C364.587 148.007 365.493 147.666 366.487 147.585C367.482 147.504 368.484 147.69 369.273 148.102C370.062 148.513 370.573 149.117 370.695 149.78L381.345 208C381.408 208.326 381.373 208.657 381.244 208.974C381.114 209.291 380.891 209.587 380.589 209.847C380.286 210.106 379.909 210.323 379.481 210.485C379.052 210.647 378.579 210.75 378.09 210.79L377.625 210.78Z" fill="#263238"/>
<path d="M375.24 184.6C374.325 182.36 376.05 182.03 374.385 178.85C373.5 177.16 376.41 175.85 376.77 177.21C378.12 182.16 387.975 184.93 384.555 188.06C381.135 191.19 376.14 186.84 375.24 184.6Z" fill="#FF8B7B"/>
<path d="M442.093 100.786C445.035 69.5278 409.41 42.5979 362.522 40.6367C315.634 38.6756 275.239 62.4259 272.297 93.6845C269.355 124.943 304.981 151.873 351.869 153.834C398.757 155.795 439.152 132.045 442.093 100.786Z" fill="#FFBDD0"/>
<path d="M421.929 112.521C434.601 88.6788 415.881 62.5026 380.118 54.0549C344.354 45.6072 305.09 58.087 292.418 81.9293C279.747 105.772 298.467 131.948 334.23 140.395C369.994 148.843 409.258 136.363 421.929 112.521Z" fill="white"/>
<path d="M401.805 89.4899C396.165 84.4099 385.305 89.4899 382.05 94.8299C381.166 96.1547 380.585 97.5603 380.325 98.9999L376.74 82.6899L373.905 67.2299C373.607 65.9033 372.543 64.7067 370.941 63.8948C369.339 63.0829 367.325 62.7198 365.328 62.8826C363.331 63.0455 361.508 63.7215 360.246 64.7669C358.985 65.8122 358.386 67.1444 358.575 68.4799L357.87 64.6299C357.746 63.9595 357.425 63.312 356.926 62.7243C356.426 62.1366 355.758 61.6202 354.959 61.2047C354.16 60.7891 353.247 60.4826 352.27 60.3024C351.294 60.1223 350.273 60.0722 349.268 60.1549C348.262 60.2377 347.291 60.4516 346.409 60.7846C345.528 61.1176 344.753 61.5631 344.13 62.0956C343.507 62.6282 343.047 63.2374 342.777 63.8884C342.506 64.5394 342.431 65.2195 342.555 65.8899L343.545 71.2499C343.411 70.5245 343.046 69.8264 342.476 69.2021C341.906 68.5778 341.142 68.0416 340.237 67.6292C339.332 67.2168 338.305 66.9376 337.226 66.8101C336.146 66.6826 335.038 66.7098 333.975 66.8899C332.156 67.2012 330.568 67.943 329.508 68.977C328.448 70.011 327.989 71.2667 328.215 72.5099L329.445 79.1999C329.313 78.4738 328.95 77.7748 328.38 77.1497C327.811 76.5245 327.047 75.9877 326.142 75.575C325.236 75.1623 324.208 74.8832 323.127 74.7564C322.047 74.6297 320.938 74.6582 319.875 74.8399C318.058 75.1492 316.472 75.8895 315.415 76.9221C314.357 77.9548 313.901 79.209 314.13 80.4499L316.59 93.8199L318.345 103.41L320.67 116C322.32 125 327.585 130.08 335.4 132.37C347.4 135.88 369.375 135.92 379.245 130.58C387.885 125.91 393.435 114.66 394.77 107.69C396.105 100.72 404.1 91.5399 401.805 89.4899Z" fill="#263238"/>
<path d="M414.77 57.7445L400.765 50.4473L299.592 136.746L313.597 144.044L414.77 57.7445Z" fill="#FFBDD0"/>
<path d="M120.66 180.08V161.88H140.415V164H124.275V169.58H139.38V171.72H124.275V177.91H141V180.06L120.66 180.08Z" fill="#263238"/>
<path d="M145.575 180.08V166.89H148.575V168.89C149.081 168.18 149.807 167.549 150.705 167.04C151.332 166.744 152.082 166.587 152.85 166.59C154.08 166.613 155.276 166.866 156.3 167.32L155.145 169.39C154.406 169.084 153.555 168.918 152.685 168.91C151.974 168.902 151.28 169.058 150.72 169.35C150.118 169.658 149.677 170.085 149.46 170.57C149.083 171.417 148.896 172.296 148.905 173.18V180.08H145.575Z" fill="#263238"/>
<path d="M158.279 180.08V166.89H161.279V168.89C161.804 168.159 162.561 167.514 163.499 167C164.127 166.705 164.877 166.548 165.644 166.55C166.874 166.572 168.07 166.825 169.094 167.28L167.939 169.35C167.2 169.044 166.35 168.878 165.479 168.87C164.768 168.862 164.074 169.017 163.514 169.31C162.912 169.618 162.471 170.045 162.254 170.53C161.877 171.377 161.69 172.256 161.699 173.14V180.04L158.279 180.08Z" fill="#263238"/>
<path d="M169.77 173.49C169.77 171.05 170.77 169.24 172.77 168.06C174.494 167.072 176.708 166.548 178.98 166.59C180.219 166.56 181.453 166.705 182.602 167.013C183.752 167.321 184.792 167.787 185.655 168.38C186.553 169.045 187.244 169.823 187.689 170.667C188.135 171.511 188.325 172.406 188.25 173.3C188.343 174.675 187.947 176.046 187.095 177.3C186.351 178.259 185.19 179.046 183.765 179.56C182.302 180.101 180.653 180.38 178.98 180.37C177.739 180.403 176.501 180.263 175.346 179.958C174.192 179.653 173.145 179.19 172.275 178.6C170.468 177.181 169.568 175.346 169.77 173.49ZM173.22 173.49C173.068 174.844 173.653 176.19 174.87 177.28C175.39 177.675 176.03 177.991 176.748 178.208C177.465 178.425 178.244 178.537 179.033 178.537C179.821 178.537 180.6 178.425 181.318 178.208C182.036 177.991 182.676 177.675 183.195 177.28C184.429 176.165 185.02 174.791 184.86 173.41C185.003 172.082 184.41 170.766 183.195 169.71C182.674 169.316 182.034 169.001 181.316 168.785C180.598 168.569 179.82 168.457 179.033 168.457C178.245 168.457 177.467 168.569 176.749 168.785C176.031 169.001 175.391 169.316 174.87 169.71C173.657 170.797 173.071 172.138 173.22 173.49Z" fill="#263238"/>
<path d="M192.194 180.08V166.89H195.194V168.89C195.695 168.177 196.421 167.546 197.324 167.04C197.951 166.744 198.701 166.587 199.469 166.59C200.699 166.613 201.895 166.866 202.919 167.32L201.764 169.39C201.024 169.085 200.174 168.919 199.304 168.91C198.588 168.902 197.89 169.057 197.324 169.35C196.727 169.659 196.291 170.086 196.079 170.57C195.695 171.416 195.508 172.296 195.524 173.18V180.08H192.194Z" fill="#263238"/>
<path d="M133.125 202.69V200.75C132.456 201.454 131.526 202.031 130.425 202.425C129.324 202.819 128.089 203.017 126.84 203C125.719 203.006 124.61 202.852 123.585 202.55C122.695 202.316 121.914 201.93 121.32 201.43C120.812 200.928 120.46 200.364 120.285 199.77C120.126 199.079 120.061 198.379 120.09 197.68V189.5H123.435V196.81C123.397 197.599 123.467 198.389 123.645 199.17C123.826 199.725 124.299 200.218 124.98 200.56C125.723 200.903 126.611 201.078 127.515 201.06C128.511 201.062 129.49 200.886 130.35 200.55C131.19 200.23 131.849 199.734 132.225 199.14C132.639 198.313 132.822 197.441 132.765 196.57V189.5H136.125V202.69H133.125Z" fill="#263238"/>
<path d="M141.375 202.69V189.5H144.375V191.37C145.051 190.673 145.987 190.107 147.092 189.726C148.197 189.346 149.432 189.164 150.675 189.2C151.803 189.188 152.922 189.335 153.96 189.63C154.849 189.859 155.627 190.247 156.21 190.75C156.723 191.251 157.08 191.815 157.26 192.41C157.41 193.128 157.47 193.854 157.44 194.58V202.69H154.095V194.69C154.135 194.012 153.998 193.336 153.69 192.69C153.428 192.236 152.941 191.855 152.31 191.61C151.602 191.333 150.791 191.194 149.97 191.21C148.611 191.194 147.291 191.515 146.265 192.11C145.23 192.72 144.765 193.87 144.765 195.56V202.76L141.375 202.69Z" fill="#263238"/>
<path d="M175.5 201.06C174.438 201.692 173.22 202.196 171.9 202.55C170.721 202.847 169.47 202.996 168.21 202.99C166.397 203.068 164.607 202.686 163.2 201.92C162.627 201.582 162.173 201.164 161.87 200.695C161.567 200.227 161.422 199.72 161.445 199.21C161.436 198.609 161.651 198.016 162.069 197.484C162.488 196.952 163.098 196.497 163.845 196.16C164.582 195.824 165.398 195.574 166.26 195.42C167.249 195.272 168.251 195.162 169.26 195.09C171.293 194.966 173.303 194.708 175.26 194.32C175.26 194.01 175.26 193.82 175.26 193.73C175.315 193.384 175.26 193.033 175.097 192.702C174.934 192.371 174.667 192.067 174.315 191.81C173.224 191.251 171.862 190.98 170.49 191.05C169.268 190.991 168.048 191.183 166.995 191.6C166.108 192.117 165.519 192.825 165.33 193.6L162.06 193.3C162.281 192.478 162.796 191.702 163.56 191.04C164.346 190.413 165.388 189.951 166.56 189.71C168.008 189.381 169.53 189.222 171.06 189.24C172.46 189.208 173.857 189.343 175.185 189.64C176.077 189.833 176.879 190.177 177.51 190.64C178.038 191.083 178.399 191.604 178.56 192.16C178.695 192.843 178.75 193.532 178.725 194.22V197.22C178.674 198.555 178.744 199.891 178.935 201.22C179.089 201.774 179.378 202.308 179.79 202.8H176.28C175.853 202.259 175.588 201.668 175.5 201.06ZM175.215 196.06C173.444 196.478 171.607 196.76 169.74 196.9C168.716 196.969 167.709 197.12 166.74 197.35C166.199 197.499 165.739 197.753 165.42 198.08C165.109 198.394 164.947 198.764 164.955 199.14C164.947 199.422 165.033 199.703 165.206 199.96C165.38 200.218 165.637 200.447 165.96 200.63C166.813 201.072 167.883 201.286 168.96 201.23C170.165 201.245 171.354 201.048 172.41 200.66C173.374 200.31 174.15 199.768 174.63 199.11C175.045 198.401 175.229 197.64 175.17 196.88L175.215 196.06Z" fill="#263238"/>
<path d="M196.785 202.69V200.75C196.116 201.454 195.186 202.031 194.085 202.425C192.984 202.819 191.749 203.017 190.5 203C189.374 203.005 188.26 202.851 187.23 202.55C186.346 202.313 185.571 201.927 184.98 201.43C184.46 200.933 184.107 200.366 183.945 199.77C183.779 199.079 183.709 198.379 183.735 197.68V189.5H187.095V196.81C187.057 197.599 187.127 198.389 187.305 199.17C187.486 199.725 187.959 200.218 188.64 200.56C189.383 200.903 190.271 201.078 191.175 201.06C192.171 201.062 193.15 200.886 194.01 200.55C194.85 200.23 195.509 199.734 195.885 199.14C196.299 198.313 196.482 197.441 196.425 196.57V189.5H199.785V202.69H196.785Z" fill="#263238"/>
<path d="M212.354 200.69L212.849 202.69C212.018 202.817 211.168 202.884 210.314 202.89C209.337 202.923 208.362 202.792 207.479 202.51C206.857 202.286 206.358 201.935 206.054 201.51C205.702 200.654 205.565 199.765 205.649 198.88V191.29H203.189V189.5H205.649V186.23L208.979 184.89V189.5H212.354V191.24H208.979V199C208.939 199.413 209 199.829 209.159 200.23C209.278 200.412 209.484 200.563 209.744 200.66C210.094 200.785 210.488 200.843 210.884 200.83C211.379 200.806 211.87 200.76 212.354 200.69Z" fill="#263238"/>
<path d="M215.64 202.689V184.479H219V190.999C219.719 190.42 220.626 189.956 221.652 189.643C222.678 189.33 223.796 189.175 224.925 189.189C226.252 189.166 227.568 189.365 228.75 189.77C229.766 190.114 230.584 190.673 231.075 191.359C231.613 192.317 231.848 193.338 231.765 194.359V202.719H228.42V194.359C228.532 193.483 228.14 192.611 227.325 191.919C226.918 191.656 226.432 191.452 225.9 191.322C225.368 191.191 224.801 191.135 224.235 191.16C223.248 191.159 222.279 191.335 221.43 191.669C220.595 191.986 219.941 192.479 219.57 193.07C219.145 193.847 218.951 194.673 219 195.499V202.719L215.64 202.689Z" fill="#263238"/>
<path d="M235.605 196.09C235.605 193.65 236.605 191.844 238.605 190.67C240.334 189.682 242.553 189.158 244.83 189.2C246.077 189.17 247.319 189.314 248.476 189.625C249.634 189.935 250.681 190.403 251.55 191C252.449 191.667 253.142 192.446 253.587 193.292C254.032 194.138 254.222 195.035 254.145 195.93C254.237 197.305 253.846 198.674 253.005 199.93C252.26 200.895 251.094 201.687 249.66 202.2C248.202 202.741 246.558 203.02 244.89 203.01C243.645 203.045 242.403 202.904 241.245 202.598C240.087 202.291 239.039 201.825 238.17 201.23C236.328 199.811 235.406 197.962 235.605 196.09ZM239.055 196.09C238.903 197.448 239.488 198.797 240.705 199.89C241.218 200.295 241.86 200.617 242.584 200.835C243.308 201.053 244.096 201.161 244.89 201.15C245.681 201.16 246.465 201.051 247.185 200.832C247.904 200.612 248.54 200.286 249.045 199.88C250.27 198.767 250.855 197.397 250.695 196.02C250.838 194.689 250.246 193.37 249.03 192.31C248.51 191.915 247.87 191.598 247.152 191.382C246.435 191.165 245.655 191.052 244.867 191.052C244.079 191.052 243.3 191.165 242.582 191.382C241.864 191.598 241.224 191.915 240.705 192.31C239.485 193.395 238.899 194.739 239.055 196.09Z" fill="#263238"/>
<path d="M258 202.69V189.5H261V191.5C261.496 190.786 262.223 190.154 263.13 189.65C263.757 189.355 264.507 189.197 265.275 189.2C266.504 189.219 267.699 189.469 268.725 189.92L267.57 192C266.835 191.687 265.982 191.517 265.11 191.51C264.399 191.506 263.707 191.661 263.145 191.95C262.546 192.26 262.106 192.687 261.885 193.17C261.509 194.017 261.322 194.897 261.33 195.78V202.69H258Z" fill="#263238"/>
<path d="M270.795 187.049V184.479H274.155V187.049H270.795ZM270.795 202.689V189.499H274.155V202.689H270.795Z" fill="#263238"/>
<path d="M277.5 202.69V200.88L290.1 191.24C288.6 191.24 287.4 191.31 286.32 191.31H278.25V189.5H294.42V191L283.71 199.37L281.64 200.9C283.14 200.82 284.55 200.78 285.87 200.78H295.02V202.71L277.5 202.69Z" fill="#263238"/>
<path d="M311.88 198.439L315.345 198.729C314.905 199.972 313.847 201.078 312.345 201.869C310.697 202.649 308.709 203.043 306.69 202.989C305.418 203.033 304.146 202.896 302.959 202.587C301.772 202.279 300.697 201.806 299.805 201.199C298 199.822 297.083 198.025 297.255 196.199C297.082 194.319 298.006 192.466 299.835 191.029C300.681 190.422 301.715 189.943 302.864 189.625C304.013 189.308 305.252 189.159 306.495 189.189C307.708 189.162 308.915 189.308 310.036 189.619C311.156 189.93 312.164 190.397 312.99 190.989C314.77 192.403 315.667 194.218 315.495 196.059C315.495 196.189 315.495 196.389 315.495 196.659H300.735C300.741 197.877 301.395 199.053 302.58 199.979C303.11 200.355 303.752 200.653 304.465 200.853C305.178 201.053 305.946 201.15 306.72 201.139C307.848 201.159 308.955 200.931 309.87 200.489C310.824 199.95 311.522 199.238 311.88 198.439ZM300.87 194.829H311.91C311.874 193.931 311.435 193.06 310.65 192.329C310.154 191.915 309.521 191.583 308.8 191.359C308.079 191.135 307.29 191.026 306.495 191.039C305.78 191.023 305.067 191.103 304.399 191.275C303.732 191.447 303.123 191.707 302.61 192.039C301.514 192.786 300.891 193.785 300.87 194.829Z" fill="#263238"/>
<path d="M332.385 202.69V201C331.82 201.636 331.006 202.157 330.032 202.51C329.057 202.862 327.958 203.031 326.85 203C325.303 203.005 323.788 202.702 322.5 202.13C321.154 201.528 320.089 200.686 319.425 199.7C318.678 198.574 318.309 197.352 318.345 196.12C318.321 194.892 318.657 193.672 319.335 192.53C319.919 191.519 320.969 190.657 322.335 190.07C323.646 189.5 325.18 189.201 326.745 189.21C327.856 189.198 328.954 189.37 329.94 189.71C330.831 190.03 331.604 190.478 332.205 191.02V184.49H335.55V202.7L332.385 202.69ZM321.795 196.11C321.637 197.456 322.201 198.795 323.385 199.89C323.832 200.276 324.404 200.59 325.059 200.808C325.714 201.027 326.434 201.143 327.165 201.15C327.884 201.153 328.593 201.046 329.241 200.838C329.888 200.63 330.455 200.326 330.9 199.95C332.037 198.888 332.569 197.59 332.4 196.29C332.597 194.882 332.068 193.471 330.9 192.29C330.449 191.894 329.866 191.573 329.197 191.352C328.528 191.132 327.791 191.018 327.045 191.02C326.323 191.016 325.609 191.123 324.961 191.335C324.312 191.547 323.747 191.857 323.31 192.24C322.156 193.377 321.621 194.743 321.795 196.11Z" fill="#263238"/>
</svg>
