<svg width="750" height="500" viewBox="0 0 750 500" fill="none" xmlns="http://www.w3.org/2000/svg">
<path d="M726.349 203.727C709.446 126.96 650.625 66.3667 570.527 46.0747C549.468 40.7397 527.07 38.0437 504.782 40.3377C413.693 49.7157 305.031 111.013 248.653 123.863C192.274 136.713 126.164 85.3127 51.1877 164.249C-23.7873 243.185 -6.46628 425.838 143.45 461.634C293.365 497.43 376.81 409.316 443.401 428.591C509.992 447.866 629.21 439.605 699.606 382.698C741.349 348.954 741.019 270.353 726.349 203.727Z" fill="#FFBDD0"/>
<path opacity="0.8" d="M726.349 203.727C709.446 126.96 650.625 66.3667 570.527 46.0747C549.468 40.7397 527.07 38.0437 504.782 40.3377C413.693 49.7157 305.031 111.013 248.653 123.863C192.274 136.713 126.164 85.3127 51.1877 164.249C-23.7873 243.185 -6.46628 425.838 143.45 461.634C293.365 497.43 376.81 409.316 443.401 428.591C509.992 447.866 629.21 439.605 699.606 382.698C741.349 348.954 741.019 270.353 726.349 203.727Z" fill="white"/>
<path opacity="0.2" d="M405.633 221.519H374.758V234.016H405.633V221.519Z" fill="black"/>
<path opacity="0.2" d="M393.871 177.043H362.996V189.54H393.871V177.043Z" fill="black"/>
<path opacity="0.2" d="M282.132 221.15H251.257V233.647H282.132V221.15Z" fill="black"/>
<path opacity="0.2" d="M326.976 134.193H296.101V146.69H326.976V134.193Z" fill="black"/>
<path opacity="0.2" d="M360.791 134.193H329.916V146.69H360.791V134.193Z" fill="black"/>
<path opacity="0.2" d="M229.203 313.563H198.328V326.06H229.203V313.563Z" fill="black"/>
<path opacity="0.2" d="M213.031 329.001H182.156V341.498H213.031V329.001Z" fill="black"/>
<path opacity="0.1" d="M376.963 194.318H346.088V206.815H376.963V194.318Z" fill="black"/>
<path opacity="0.1" d="M423.276 264.523H392.401V277.02H423.276V264.523Z" fill="black"/>
<path opacity="0.1" d="M242.437 283.636H211.562V296.133H242.437V283.636Z" fill="black"/>
<path opacity="0.1" d="M277.723 283.636H246.848V296.133H277.723V283.636Z" fill="black"/>
<path opacity="0.1" d="M280.662 265.993H249.787V278.49H280.662V265.993Z" fill="black"/>
<path opacity="0.1" d="M412.249 194.318H381.374V206.815H412.249V194.318Z" fill="black"/>
<path opacity="0.2" d="M396.728 94.7959H365.853V107.293H396.728V94.7959Z" fill="black"/>
<path opacity="0.2" d="M384.965 50.3213H354.09V62.8183H384.965V50.3213Z" fill="black"/>
<path opacity="0.1" d="M368.058 67.5977H337.183V80.0947H368.058V67.5977Z" fill="black"/>
<path opacity="0.1" d="M403.344 67.5977H372.469V80.0947H403.344V67.5977Z" fill="black"/>
<path opacity="0.2" d="M320.359 327.743H289.484V340.24H320.359V327.743Z" fill="black"/>
<path opacity="0.1" d="M303.451 345.02H272.576V357.517H303.451V345.02Z" fill="black"/>
<path opacity="0.1" d="M338.737 345.02H307.862V357.517H338.737V345.02Z" fill="black"/>
<path opacity="0.2" d="M170.683 172.199H139.808V184.696H170.683V172.199Z" fill="black"/>
<path opacity="0.1" d="M153.774 189.476H122.899V201.973H153.774V189.476Z" fill="black"/>
<path opacity="0.1" d="M189.061 189.476H158.186V201.973H189.061V189.476Z" fill="black"/>
<path opacity="0.2" d="M158.632 265.258H127.757V277.755H158.632V265.258Z" fill="black"/>
<path opacity="0.1" d="M295.365 205.5H264.49V217.997H295.365V205.5Z" fill="black"/>
<path opacity="0.1" d="M249.053 328.267H218.178V340.764H249.053V328.267Z" fill="black"/>
<path opacity="0.1" d="M344.618 118.756H313.743V131.253H344.618V118.756Z" fill="black"/>
<path opacity="0.2" d="M140.989 223.878H110.114V236.375H140.989V223.878Z" fill="black"/>
<path opacity="0.1" d="M158.632 208.441H127.757V220.938H158.632V208.441Z" fill="black"/>
<path opacity="0.1" d="M237.29 133.303H206.415V145.8H237.29V133.303Z" fill="black"/>
<path opacity="0.2" d="M344.618 221.519H313.743V234.016H344.618V221.519Z" fill="black"/>
<path opacity="0.2" d="M480.149 234.016H511.024V221.519H480.149V234.016Z" fill="black"/>
<path opacity="0.2" d="M491.911 189.54H522.786V177.043H491.911V189.54Z" fill="black"/>
<path opacity="0.2" d="M603.649 233.648H634.524V221.151H603.649V233.648Z" fill="black"/>
<path opacity="0.2" d="M558.807 146.69H589.682V134.193H558.807V146.69Z" fill="black"/>
<path opacity="0.2" d="M524.991 146.69H555.866V134.193H524.991V146.69Z" fill="black"/>
<path opacity="0.1" d="M508.818 206.816H539.693V194.319H508.818V206.816Z" fill="black"/>
<path opacity="0.1" d="M462.506 277.02H493.381V264.523H462.506V277.02Z" fill="black"/>
<path opacity="0.1" d="M643.346 296.134H674.221V283.637H643.346V296.134Z" fill="black"/>
<path opacity="0.1" d="M608.061 296.134H638.936V283.637H608.061V296.134Z" fill="black"/>
<path opacity="0.1" d="M605.12 278.49H635.995V265.993H605.12V278.49Z" fill="black"/>
<path opacity="0.1" d="M473.533 206.816H504.408V194.319H473.533V206.816Z" fill="black"/>
<path opacity="0.2" d="M232.743 389.964H263.618V377.467H232.743V389.964Z" fill="black"/>
<path opacity="0.1" d="M249.651 407.239H280.526V394.742H249.651V407.239Z" fill="black"/>
<path opacity="0.1" d="M214.365 407.239H245.24V394.742H214.365V407.239Z" fill="black"/>
<path opacity="0.2" d="M83.29 389.964H114.165V377.467H83.29V389.964Z" fill="black"/>
<path opacity="0.1" d="M100.197 407.239H131.072V394.742H100.197V407.239Z" fill="black"/>
<path opacity="0.1" d="M64.9121 407.239H95.7871V394.742H64.9121V407.239Z" fill="black"/>
<path opacity="0.2" d="M565.423 340.241H596.298V327.744H565.423V340.241Z" fill="black"/>
<path opacity="0.1" d="M582.33 357.516H613.205V345.019H582.33V357.516Z" fill="black"/>
<path opacity="0.1" d="M547.045 357.516H577.92V345.019H547.045V357.516Z" fill="black"/>
<path opacity="0.1" d="M590.417 217.997H621.292V205.5H590.417V217.997Z" fill="black"/>
<path opacity="0.1" d="M636.729 340.763H667.604V328.266H636.729V340.763Z" fill="black"/>
<path opacity="0.1" d="M486.118 358.334H516.993V345.837H486.118V358.334Z" fill="black"/>
<path opacity="0.1" d="M450.832 358.334H481.707V345.837H450.832V358.334Z" fill="black"/>
<path opacity="0.2" d="M408.194 402.44H439.069V389.943H408.194V402.44Z" fill="black"/>
<path opacity="0.1" d="M671.968 419.717H702.843V407.22H671.968V419.717Z" fill="black"/>
<path opacity="0.1" d="M671.968 387.753H702.843V375.256H671.968V387.753Z" fill="black"/>
<path opacity="0.1" d="M687.789 403.303H718.664V390.806H687.789V403.303Z" fill="black"/>
<path opacity="0.1" d="M652.37 403.303H683.245V390.806H652.37V403.303Z" fill="black"/>
<path opacity="0.1" d="M479.502 402.964H510.377V390.467H479.502V402.964Z" fill="black"/>
<path opacity="0.2" d="M550.832 431.914H519.957V444.411H550.832V431.914Z" fill="black"/>
<path opacity="0.1" d="M533.924 449.189H503.049V461.686H533.924V449.189Z" fill="black"/>
<path opacity="0.1" d="M569.21 449.189H538.335V461.686H569.21V449.189Z" fill="black"/>
<path opacity="0.2" d="M653.636 420.887H622.761V433.384H653.636V420.887Z" fill="black"/>
<path opacity="0.1" d="M636.729 449.189H605.854V461.686H636.729V449.189Z" fill="black"/>
<path opacity="0.1" d="M672.015 449.189H641.14V461.686H672.015V449.189Z" fill="black"/>
<path opacity="0.1" d="M100.169 461.667H69.2939V474.164H100.169V461.667Z" fill="black"/>
<path opacity="0.1" d="M201.453 445.253H170.578V457.75H201.453V445.253Z" fill="black"/>
<path opacity="0.1" d="M144.437 429.703H113.562V442.2H144.437V429.703Z" fill="black"/>
<path opacity="0.1" d="M128.614 445.253H97.7393V457.75H128.614V445.253Z" fill="black"/>
<path opacity="0.1" d="M164.034 445.253H133.159V457.75H164.034V445.253Z" fill="black"/>
<path opacity="0.1" d="M541.164 131.252H572.039V118.755H541.164V131.252Z" fill="black"/>
<path opacity="0.1" d="M524.75 78.5557H555.625V66.0587H524.75V78.5557Z" fill="black"/>
<path opacity="0.1" d="M648.492 145.801H679.367V133.304H648.492V145.801Z" fill="black"/>
<path opacity="0.2" d="M541.164 234.016H572.039V221.519H541.164V234.016Z" fill="black"/>
<path opacity="0.2" d="M227.066 48.4502H196.191V60.9472H227.066V48.4502Z" fill="black"/>
<path opacity="0.1" d="M102.323 137.002H71.4482V149.499H102.323V137.002Z" fill="black"/>
<path opacity="0.1" d="M140.824 147.782H109.949V160.279H140.824V147.782Z" fill="black"/>
<path opacity="0.1" d="M65.3623 160.104H34.4873V172.601H65.3623V160.104Z" fill="black"/>
<path opacity="0.1" d="M121.141 160.658H90.2656V173.155H121.141V160.658Z" fill="black"/>
<path opacity="0.2" d="M208.173 65.9746H177.298V78.4716H208.173V65.9746Z" fill="black"/>
<path opacity="0.2" d="M538.932 48.4502H508.057V60.9472H538.932V48.4502Z" fill="black"/>
<path opacity="0.2" d="M520.038 65.9746H489.163V78.4716H520.038V65.9746Z" fill="black"/>
<path d="M91.2064 213.381H11.5654V200.381H84.7064V12.2031H97.7064V206.881C97.7064 210.471 94.7964 213.381 91.2064 213.381Z" fill="white" stroke="#263238" stroke-miterlimit="10" stroke-linecap="round" stroke-linejoin="round"/>
<path d="M694.254 7.74121V82.1712H97.4307V95.1712H673.368V409.371H519.749C516.159 409.371 513.249 412.281 513.249 415.871V463.732H526.249V422.37H673.368V466.343H686.368V95.1702H700.754C704.344 95.1702 707.254 92.2602 707.254 88.6702V7.74121H694.254Z" fill="white" stroke="#263238" stroke-miterlimit="10" stroke-linecap="round" stroke-linejoin="round"/>
<path d="M707.143 47.7988H694.443V53.6988H707.143V47.7988Z" fill="white" stroke="#263238" stroke-miterlimit="10" stroke-linecap="round" stroke-linejoin="round"/>
<path d="M572.103 422.276V409.577H566.203V422.276H572.103Z" fill="white" stroke="#263238" stroke-miterlimit="10" stroke-linecap="round" stroke-linejoin="round"/>
<path d="M584.95 422.276V409.577H579.05V422.276H584.95Z" fill="white" stroke="#263238" stroke-miterlimit="10" stroke-linecap="round" stroke-linejoin="round"/>
<path d="M239.579 433.067H29.9434V446.067H239.579V433.067Z" fill="white" stroke="#263238" stroke-miterlimit="10" stroke-linecap="round" stroke-linejoin="round"/>
<path d="M239.579 415.153H29.9434V428.153H239.579V415.153Z" fill="white" stroke="#263238" stroke-miterlimit="10" stroke-linecap="round" stroke-linejoin="round"/>
<path d="M128.344 415.396H119.379V428.029H128.344V415.396Z" fill="white" stroke="#263238" stroke-miterlimit="10" stroke-linecap="round" stroke-linejoin="round"/>
<path d="M147.021 415.396H138.056V428.029H147.021V415.396Z" fill="white" stroke="#263238" stroke-miterlimit="10" stroke-linecap="round" stroke-linejoin="round"/>
<path d="M128.344 433.311H119.379V445.944H128.344V433.311Z" fill="white" stroke="#263238" stroke-miterlimit="10" stroke-linecap="round" stroke-linejoin="round"/>
<path d="M147.021 433.311H138.056V445.944H147.021V433.311Z" fill="white" stroke="#263238" stroke-miterlimit="10" stroke-linecap="round" stroke-linejoin="round"/>
<path d="M268.079 172.488V155.342H257.637C257.134 152.471 256.396 149.681 255.42 147.004L264.443 141.795L255.87 126.946L246.827 132.167C244.975 129.962 242.934 127.922 240.729 126.071L245.948 117.032L231.099 108.459L225.887 117.486C223.209 116.511 220.419 115.774 217.548 115.272V104.834H200.401V115.276C197.53 115.779 194.74 116.517 192.063 117.493L186.854 108.47L172.005 117.043L177.226 126.086C175.021 127.938 172.982 129.979 171.13 132.184L162.091 126.965L153.518 141.814L162.545 147.026C161.57 149.704 160.833 152.494 160.331 155.365H149.893V172.511H160.335C160.838 175.382 161.576 178.172 162.552 180.849L153.529 186.058L162.102 200.907L171.145 195.686C172.997 197.891 175.038 199.931 177.243 201.782L172.024 210.821L186.873 219.394L192.085 210.367C194.763 211.342 197.553 212.079 200.424 212.581V223.019H217.57V212.577C220.441 212.074 223.231 211.336 225.908 210.36L231.117 219.383L245.966 210.81L240.745 201.767C242.95 199.915 244.99 197.874 246.841 195.669L255.88 200.888L264.453 186.039L255.426 180.827C256.401 178.149 257.138 175.359 257.64 172.488H268.079ZM208.987 195.875C191.343 195.875 177.039 181.572 177.039 163.928C177.039 146.284 191.342 131.981 208.987 131.981C226.631 131.981 240.935 146.284 240.935 163.928C240.934 181.572 226.631 195.875 208.987 195.875Z" fill="white" stroke="#263238" stroke-miterlimit="10" stroke-linecap="round" stroke-linejoin="round"/>
<path d="M190.128 329.914V312.768H179.686C179.183 309.897 178.445 307.108 177.469 304.43L186.492 299.221L177.919 284.372L168.876 289.593C167.024 287.388 164.983 285.348 162.778 283.497L167.997 274.458L153.148 265.885L147.936 274.912C145.258 273.937 142.468 273.2 139.597 272.698V262.26H122.451V272.702C119.58 273.205 116.79 273.943 114.113 274.919L108.904 265.896L94.0554 274.469L99.2764 283.512C97.0714 285.364 95.0314 287.405 93.1804 289.61L84.1414 284.391L75.5684 299.24L84.5954 304.452C83.6204 307.13 82.8834 309.92 82.3814 312.791H71.9434V329.937H82.3854C82.8884 332.808 83.6264 335.598 84.6024 338.275L75.5794 343.484L84.1524 358.333L93.1954 353.112C95.0474 355.317 97.0884 357.356 99.2934 359.208L94.0744 368.247L108.923 376.82L114.135 367.793C116.813 368.768 119.603 369.505 122.474 370.007V380.445H139.62V370.003C142.491 369.5 145.28 368.762 147.958 367.786L153.167 376.809L168.016 368.236L162.795 359.193C165 357.341 167.039 355.3 168.891 353.095L177.93 358.314L186.503 343.465L177.476 338.253C178.451 335.575 179.188 332.785 179.69 329.914H190.128ZM131.036 353.301C113.392 353.301 99.0884 338.998 99.0884 321.353C99.0884 303.708 113.391 289.406 131.036 289.406C148.68 289.406 162.983 303.709 162.983 321.353C162.983 338.997 148.68 353.301 131.036 353.301Z" fill="white" stroke="#263238" stroke-miterlimit="10" stroke-linecap="round" stroke-linejoin="round"/>
<path d="M625.243 327.462V315.887H618.194C617.854 313.949 617.356 312.066 616.697 310.258L622.788 306.741L617.001 296.717L610.896 300.242C609.645 298.754 608.268 297.377 606.779 296.127L610.302 290.025L600.278 284.238L596.76 290.332C594.952 289.674 593.069 289.176 591.131 288.838V281.792H579.556V288.841C577.618 289.181 575.735 289.679 573.927 290.338L570.41 284.247L560.386 290.034L563.911 296.139C562.423 297.389 561.046 298.767 559.796 300.256L553.694 296.733L547.907 306.757L554.001 310.275C553.343 312.083 552.845 313.966 552.507 315.904H545.461V327.479H552.51C552.85 329.417 553.348 331.3 554.007 333.108L547.916 336.625L553.703 346.649L559.808 343.124C561.058 344.612 562.436 345.989 563.925 347.239L560.402 353.341L570.426 359.128L573.944 353.034C575.752 353.692 577.635 354.19 579.573 354.528V361.574H591.148V354.525C593.086 354.185 594.969 353.687 596.777 353.028L600.294 359.119L610.318 353.332L606.793 347.227C608.281 345.976 609.658 344.599 610.908 343.11L617.01 346.633L622.797 336.609L616.703 333.091C617.361 331.283 617.859 329.4 618.197 327.462H625.243ZM585.351 343.25C573.44 343.25 563.784 333.594 563.784 321.683C563.784 309.772 573.44 300.116 585.351 300.116C597.262 300.116 606.918 309.772 606.918 321.683C606.918 333.594 597.262 343.25 585.351 343.25Z" fill="white" stroke="#263238" stroke-miterlimit="10" stroke-linecap="round" stroke-linejoin="round"/>
<path d="M568.669 163.515V151.94H561.62C561.28 150.002 560.782 148.119 560.123 146.311L566.214 142.794L560.426 132.77L554.321 136.295C553.071 134.807 551.693 133.429 550.204 132.18L553.727 126.078L543.703 120.291L540.185 126.385C538.377 125.727 536.494 125.229 534.556 124.891V117.845H522.981V124.894C521.043 125.234 519.16 125.732 517.352 126.391L513.835 120.3L503.811 126.087L507.336 132.192C505.848 133.443 504.471 134.82 503.221 136.309L497.119 132.786L491.332 142.81L497.426 146.328C496.768 148.136 496.27 150.019 495.932 151.957H488.886V163.532H495.935C496.275 165.47 496.773 167.353 497.432 169.161L491.341 172.678L497.129 182.702L503.234 179.177C504.484 180.665 505.862 182.042 507.351 183.292L503.828 189.394L513.852 195.181L517.37 189.087C519.178 189.745 521.061 190.243 522.999 190.581V197.627H534.574V190.578C536.512 190.238 538.395 189.74 540.203 189.081L543.72 195.172L553.744 189.385L550.219 183.28C551.707 182.029 553.084 180.652 554.334 179.163L560.436 182.686L566.223 172.662L560.129 169.144C560.787 167.336 561.285 165.453 561.623 163.515H568.669ZM528.777 179.303C516.866 179.303 507.21 169.647 507.21 157.736C507.21 145.825 516.866 136.169 528.777 136.169C540.688 136.169 550.344 145.825 550.344 157.736C550.344 169.647 540.688 179.303 528.777 179.303Z" fill="white" stroke="#263238" stroke-miterlimit="10" stroke-linecap="round" stroke-linejoin="round"/>
<path d="M149.543 390.415V310.235H45.1816V258.903L134.695 46.7881H211.056V260.176H244.146V310.236H211.056V390.416L149.543 390.415ZM96.9376 260.176H149.542V114.241L96.9376 260.176Z" fill="#263238"/>
<path d="M211.056 390.915H149.543C149.267 390.915 149.043 390.691 149.043 390.415V310.735H45.1816C44.9056 310.735 44.6816 310.511 44.6816 310.235V258.903C44.6816 258.837 44.6946 258.77 44.7216 258.709L134.235 46.5941C134.313 46.4091 134.494 46.2881 134.696 46.2881H211.057C211.333 46.2881 211.557 46.5121 211.557 46.7881V259.676H244.147C244.423 259.676 244.647 259.9 244.647 260.176V310.236C244.647 310.512 244.423 310.736 244.147 310.736H211.557V390.416C211.556 390.691 211.333 390.915 211.056 390.915ZM150.043 389.915H210.556V310.235C210.556 309.959 210.78 309.735 211.056 309.735H243.646V260.675H211.056C210.78 260.675 210.556 260.451 210.556 260.175V47.2881H135.026L45.6816 259.005V309.735H149.543C149.819 309.735 150.043 309.959 150.043 310.235V389.915ZM149.543 260.676H96.9386C96.7756 260.676 96.6236 260.597 96.5296 260.463C96.4356 260.33 96.4136 260.159 96.4686 260.006L149.074 114.071C149.156 113.842 149.394 113.711 149.63 113.748C149.869 113.79 150.044 113.998 150.044 114.241V260.176C150.043 260.452 149.82 260.676 149.543 260.676ZM97.6496 259.676H149.043V117.102L97.6496 259.676Z" fill="#263238"/>
<path d="M367.172 396.355C346.524 396.355 329.416 392.113 315.84 383.627C302.265 375.143 292.083 363.477 285.296 348.628C278.508 333.78 275.114 316.599 275.114 297.084V143.089C275.114 123.011 278.362 105.405 284.871 90.273C291.374 75.146 301.416 63.334 314.992 54.85C328.567 46.366 345.961 42.123 367.172 42.123C388.099 42.123 405.28 46.366 418.716 54.85C432.146 63.334 442.115 75.147 448.625 90.273C455.128 105.406 458.383 123.012 458.383 143.089V297.085C458.383 316.6 454.988 333.781 448.201 348.629C441.412 363.478 431.231 375.144 417.656 383.628C404.08 392.112 387.25 396.355 367.172 396.355ZM367.172 338.659C374.808 338.659 380.323 336.259 383.717 331.447C387.111 326.641 389.371 320.914 390.505 314.265C391.631 307.623 392.202 301.472 392.202 295.811V144.361C392.202 138.143 391.705 131.634 390.717 124.846C389.723 118.058 387.535 112.192 384.141 107.241C380.747 102.296 375.086 99.817 367.172 99.817C359.251 99.817 353.524 102.296 349.991 107.241C346.452 112.193 344.191 118.059 343.203 124.846C342.208 131.634 341.718 138.143 341.718 144.361V295.811C341.718 301.472 342.281 307.624 343.415 314.265C344.542 320.913 346.948 326.641 350.627 331.447C354.299 336.26 359.814 338.659 367.172 338.659Z" fill="#263238"/>
<path d="M367.172 396.854C346.527 396.854 329.167 392.546 315.575 384.05C301.978 375.552 291.638 363.704 284.841 348.835C278.055 333.99 274.614 316.579 274.614 297.083V143.088C274.614 123.025 277.91 105.189 284.412 90.0741C290.928 74.9181 301.127 62.9241 314.727 54.4251C328.32 45.9291 345.965 41.6221 367.172 41.6221C388.096 41.6221 405.528 45.9301 418.983 54.4261C432.435 62.9251 442.562 74.9181 449.083 90.0741C455.585 105.204 458.882 123.041 458.882 143.088V297.084C458.882 316.578 455.442 333.99 448.655 348.836C441.857 363.705 431.516 375.554 417.92 384.051C404.328 392.547 387.254 396.854 367.172 396.854ZM367.172 42.6221C346.155 42.6221 328.689 46.8781 315.257 55.2731C301.833 63.6631 291.764 75.5041 285.331 90.4701C278.883 105.459 275.614 123.163 275.614 143.089V297.085C275.614 316.436 279.024 333.708 285.75 348.421C292.464 363.11 302.677 374.812 316.105 383.204C329.536 391.599 346.717 395.855 367.172 395.855C387.064 395.855 403.96 391.598 417.39 383.204C430.818 374.811 441.03 363.109 447.745 348.421C454.472 333.707 457.882 316.436 457.882 297.085V143.088C457.882 123.177 454.612 105.474 448.165 90.4691C441.725 75.5021 431.726 63.6591 418.449 55.2711C405.156 46.8771 387.904 42.6221 367.172 42.6221ZM367.172 339.159C359.681 339.159 353.981 336.667 350.23 331.751C346.516 326.899 344.058 321.044 342.922 314.35C341.792 307.724 341.218 301.487 341.218 295.812V144.362C341.218 138.113 341.719 131.523 342.708 124.775C343.702 117.94 346.016 111.943 349.583 106.951C353.202 101.886 359.119 99.3171 367.171 99.3171C375.225 99.3171 381.073 101.888 384.552 106.959C387.969 111.943 390.209 117.937 391.21 124.775C392.199 131.569 392.7 138.159 392.7 144.362V295.812C392.7 301.447 392.127 307.684 390.996 314.35C389.854 321.046 387.541 326.896 384.123 331.736C380.652 336.661 374.948 339.159 367.172 339.159ZM367.172 100.317C359.461 100.317 353.818 102.744 350.398 107.532C346.924 112.393 344.67 118.243 343.698 124.919C342.716 131.62 342.219 138.161 342.219 144.362V295.812C342.219 301.431 342.787 307.612 343.908 314.182C345.016 320.715 347.41 326.422 351.024 331.144C354.577 335.799 360.009 338.16 367.172 338.16C374.604 338.16 380.033 335.805 383.308 331.16C386.64 326.442 388.895 320.73 390.012 314.182C391.133 307.572 391.701 301.391 391.701 295.812V144.362C391.701 138.207 391.203 131.666 390.222 124.919C389.243 118.234 387.058 112.382 383.728 107.524C380.447 102.742 374.877 100.317 367.172 100.317Z" fill="#263238"/>
<path d="M598.378 390.415V310.235H494.018V258.903L583.53 46.7881H659.892V260.176H692.982V310.236H659.892V390.416L598.378 390.415ZM545.774 260.176H598.379V114.241L545.774 260.176Z" fill="#263238"/>
<path d="M659.892 390.915H598.378C598.102 390.915 597.878 390.691 597.878 390.415V310.735H494.018C493.742 310.735 493.518 310.511 493.518 310.235V258.903C493.518 258.837 493.532 258.77 493.557 258.709L583.069 46.5941C583.147 46.4091 583.329 46.2881 583.53 46.2881H659.892C660.168 46.2881 660.392 46.5121 660.392 46.7881V259.676H692.982C693.258 259.676 693.482 259.9 693.482 260.176V310.236C693.482 310.512 693.258 310.736 692.982 310.736H660.392V390.416C660.392 390.691 660.168 390.915 659.892 390.915ZM598.878 389.915H659.392V310.235C659.392 309.959 659.616 309.735 659.892 309.735H692.482V260.675H659.892C659.616 260.675 659.392 260.451 659.392 260.175V47.2881H583.862L494.518 259.005V309.735H598.378C598.654 309.735 598.878 309.959 598.878 310.235V389.915ZM598.378 260.676H545.774C545.611 260.676 545.458 260.597 545.365 260.463C545.271 260.33 545.249 260.159 545.304 260.006L597.908 114.071C597.991 113.842 598.222 113.706 598.465 113.748C598.704 113.79 598.879 113.998 598.879 114.241V260.176C598.878 260.452 598.654 260.676 598.378 260.676ZM546.485 259.676H597.878V117.103L546.485 259.676Z" fill="#263238"/>
<path d="M291.746 467.291V415.481H310.487V419.254H296.671V438.699H307.929V442.28H296.671V463.644H310.615V467.289H291.746V467.291Z" fill="#263238"/>
<path d="M317.268 467.291V415.481H328.973C332.213 415.481 334.762 416.004 336.617 417.048C338.472 418.093 339.804 419.606 340.614 421.589C341.424 423.571 341.829 425.928 341.829 428.656C341.829 430.575 341.615 432.388 341.189 434.094C340.762 435.8 340.038 437.25 339.014 438.444C337.991 439.637 336.54 440.426 334.664 440.81L342.596 467.29H337.863L330.252 441.833H322.128V467.29H317.268V467.291ZM322.129 438.252H328.717C330.892 438.252 332.576 437.891 333.77 437.165C334.963 436.44 335.817 435.374 336.329 433.967C336.841 432.56 337.097 430.79 337.097 428.657C337.097 425.459 336.542 423.072 335.434 421.494C334.325 419.917 332.129 419.127 328.846 419.127H322.13V438.252H322.129Z" fill="#263238"/>
<path d="M350.015 467.291V415.481H361.72C364.96 415.481 367.509 416.004 369.364 417.048C371.219 418.092 372.551 419.606 373.362 421.589C374.172 423.571 374.577 425.928 374.577 428.656C374.577 430.575 374.363 432.388 373.937 434.094C373.51 435.8 372.786 437.25 371.762 438.444C370.739 439.637 369.288 440.426 367.412 440.81L375.344 467.29H370.611L363 441.834H354.876V467.291H350.015ZM354.876 438.252H361.464C363.639 438.252 365.323 437.891 366.517 437.165C367.71 436.44 368.564 435.374 369.076 433.967C369.588 432.56 369.844 430.79 369.844 428.657C369.844 425.459 369.289 423.072 368.181 421.494C367.072 419.917 364.876 419.127 361.593 419.127H354.877V438.252H354.876Z" fill="#263238"/>
<path d="M394.981 467.932C391.569 467.932 388.894 467.26 386.954 465.917C385.013 464.573 383.649 462.697 382.86 460.288C382.071 457.88 381.677 455.118 381.677 452.005V430.514C381.677 427.359 382.092 424.619 382.924 422.294C383.756 419.971 385.141 418.169 387.082 416.89C389.022 415.611 391.655 414.971 394.981 414.971C398.349 414.971 401.003 415.611 402.944 416.89C404.884 418.169 406.259 419.971 407.069 422.294C407.879 424.619 408.284 427.358 408.284 430.514V452.07C408.284 455.182 407.889 457.933 407.1 460.321C406.311 462.71 404.957 464.574 403.039 465.918C401.121 467.26 398.435 467.932 394.981 467.932ZM394.981 464.03C397.284 464.03 399.031 463.572 400.226 462.654C401.419 461.738 402.241 460.459 402.689 458.817C403.137 457.175 403.36 455.266 403.36 453.092V429.617C403.36 427.442 403.136 425.546 402.689 423.925C402.241 422.305 401.42 421.057 400.226 420.183C399.032 419.309 397.284 418.872 394.981 418.872C392.72 418.872 390.983 419.31 389.768 420.183C388.553 421.056 387.721 422.305 387.273 423.925C386.825 425.546 386.601 427.443 386.601 429.617V453.092C386.601 455.266 386.825 457.175 387.273 458.817C387.721 460.459 388.552 461.738 389.768 462.654C390.983 463.572 392.72 464.03 394.981 464.03Z" fill="#263238"/>
<path d="M416.344 467.291V415.481H428.049C431.289 415.481 433.838 416.004 435.693 417.048C437.548 418.093 438.881 419.606 439.691 421.589C440.501 423.571 440.906 425.928 440.906 428.656C440.906 430.575 440.692 432.388 440.266 434.094C439.839 435.8 439.115 437.25 438.091 438.444C437.068 439.637 435.617 440.426 433.741 440.81L441.673 467.29H436.94L429.329 441.833H421.205V467.29H416.344V467.291ZM421.205 438.252H427.793C429.968 438.252 431.652 437.891 432.846 437.165C434.039 436.44 434.893 435.374 435.405 433.967C435.917 432.56 436.173 430.79 436.173 428.657C436.173 425.459 435.618 423.072 434.51 421.494C433.401 419.917 431.205 419.127 427.922 419.127H421.206V438.252H421.205Z" fill="#263238"/>
<path d="M275.155 218.786L278.867 272.295L255.669 261.469L249.792 284.976C249.792 284.976 299.59 312.813 304.538 311.885C309.487 310.957 297.115 202.702 297.115 202.702L275.155 218.786Z" fill="#FFBDD0" stroke="#263238" stroke-miterlimit="10" stroke-linecap="round" stroke-linejoin="round"/>
<path d="M308.588 347.876C308.588 347.876 335.301 338.693 345.736 329.928C356.171 321.163 301.492 215.145 301.492 215.145C301.492 215.145 302.327 312.397 308.588 347.876Z" fill="#FFBDD0" stroke="#263238" stroke-miterlimit="10" stroke-linecap="round" stroke-linejoin="round"/>
<path d="M420.412 313.624L417.324 314.084C417.348 314.271 417.363 314.433 417.357 314.54C417.123 318.51 395.656 329.079 380.5 334.797C377.186 337.364 372.752 338.659 367.173 338.659C367.122 338.659 367.076 338.653 367.025 338.653C355.327 339.779 332.854 334.629 327.773 331.154L322.294 387.193L322.296 387.194C323.178 387.627 324.078 388.042 324.986 388.45C336.859 393.712 350.914 396.354 367.173 396.354C385.927 396.354 401.846 392.65 414.927 385.247C415.022 385.193 415.118 385.139 415.213 385.085C416.038 384.613 416.855 384.129 417.657 383.627C418.625 383.022 419.571 382.397 420.504 381.759C420.79 381.564 421.068 381.363 421.351 381.165C422.005 380.706 422.653 380.24 423.29 379.765C423.593 379.539 423.893 379.311 424.192 379.082C424.829 378.592 425.457 378.093 426.076 377.587C426.327 377.382 426.582 377.179 426.831 376.971C427.681 376.259 428.518 375.535 429.333 374.791C429.335 374.789 429.337 374.788 429.338 374.786C425.843 349.997 420.412 313.624 420.412 313.624Z" fill="#737373" stroke="#263238" stroke-miterlimit="10" stroke-linecap="round" stroke-linejoin="round"/>
<path d="M300.645 248.546C300.645 248.546 325.393 309.04 325.698 311.179C326.004 313.318 323.254 327.067 327.226 330.733C331.198 334.399 357.779 340.51 369.083 338.371C380.388 336.232 417.051 319.734 417.356 314.54C417.662 309.346 380.998 207.911 376.415 195.69C371.832 183.469 353.195 179.192 340.668 180.414C328.141 181.636 297.894 189.58 292.395 197.218C286.896 204.856 300.645 248.546 300.645 248.546Z" fill="white" stroke="#263238" stroke-miterlimit="10" stroke-linecap="round" stroke-linejoin="round"/>
<path d="M302.784 192.33C302.784 192.33 299.729 220.133 301.562 225.938C303.395 231.743 311.734 247.712 311.734 247.712C311.734 247.712 325.698 230.215 328.448 228.382C331.198 226.549 356.557 242.742 356.557 242.742C356.557 242.742 357.474 225.327 353.807 210.967C350.141 196.607 343.725 181.025 341.586 178.275C339.447 175.525 339.447 185.608 331.504 192.329C323.56 199.052 302.784 192.33 302.784 192.33Z" fill="white" stroke="#263238" stroke-miterlimit="10" stroke-linecap="round" stroke-linejoin="round"/>
<path d="M300.529 197.17C300.529 197.17 304.157 206.405 312.073 217.619C319.989 228.833 330.873 237.078 330.873 237.078C330.873 237.078 339.448 214.98 341.757 201.788C344.066 188.595 340.108 175.403 340.108 175.403C340.108 175.403 338.459 195.192 331.533 199.15C324.605 203.107 300.529 197.17 300.529 197.17Z" fill="white" stroke="#263238" stroke-miterlimit="10" stroke-linecap="round" stroke-linejoin="round"/>
<path d="M318.64 200.259C309.906 199.483 300.529 197.171 300.529 197.171C300.529 197.171 304.157 206.406 312.073 217.62C312.837 218.702 313.633 219.746 314.439 220.768L328.084 204.983L318.64 200.259Z" fill="#263238" stroke="#263238" stroke-miterlimit="10" stroke-linecap="round" stroke-linejoin="round"/>
<path d="M340.107 175.402C340.107 175.402 350.141 215.55 353.807 245.797C357.473 276.044 366.334 365.563 366.334 365.563C366.334 365.563 393.831 357.619 408.191 347.231C422.551 336.843 427.134 329.816 427.134 329.816C427.134 329.816 403.608 226.853 403.608 225.325C403.608 223.797 406.052 208.521 406.052 208.521C406.052 208.521 447.604 188.967 463.491 177.052C479.378 165.136 475.407 158.72 467.768 155.665C460.13 152.61 436.299 155.971 423.161 159.637C410.023 163.303 403.302 165.748 403.302 165.748C403.302 165.748 388.637 164.526 375.193 167.581C361.751 170.637 340.107 175.402 340.107 175.402Z" fill="#FFBDD0" stroke="#263238" stroke-miterlimit="10" stroke-linecap="round" stroke-linejoin="round"/>
<path d="M361.209 278.122C360.724 279.644 360.195 281.279 359.612 283.071Z" fill="white"/>
<path d="M361.209 278.122C360.724 279.644 360.195 281.279 359.612 283.071" stroke="#263238" stroke-miterlimit="10" stroke-linecap="round" stroke-linejoin="round"/>
<path d="M365.918 210.118L370.611 213.105C370.611 213.105 369.065 237.447 366.945 252.824C365.668 262.086 364.55 267.167 362.484 274.022" stroke="#263238" stroke-miterlimit="10" stroke-linecap="round" stroke-linejoin="round"/>
<path d="M357.618 181.129C360.693 186.78 365.112 195.107 365.112 196.302C365.112 198.135 360.529 206.69 360.529 206.69L363.393 208.513" stroke="#263238" stroke-miterlimit="10" stroke-linecap="round" stroke-linejoin="round"/>
<path d="M354.719 175.859C354.719 175.859 355.206 176.73 355.968 178.114Z" fill="white"/>
<path d="M354.719 175.859C354.719 175.859 355.206 176.73 355.968 178.114" stroke="#263238" stroke-miterlimit="10" stroke-linecap="round" stroke-linejoin="round"/>
<path d="M410.979 310.446C407.578 312.799 402.432 315.803 395.36 318.512C381 324.012 378.556 324.928 378.556 324.928L380.695 332.261C380.695 332.261 405.748 327.678 417.358 314.54" stroke="#263238" stroke-miterlimit="10" stroke-linecap="round" stroke-linejoin="round"/>
<path d="M416.135 306.291C416.135 306.291 415.468 306.99 414.083 308.121Z" fill="white"/>
<path d="M416.135 306.291C416.135 306.291 415.468 306.99 414.083 308.121" stroke="#263238" stroke-miterlimit="10" stroke-linecap="round" stroke-linejoin="round"/>
<path d="M411.532 192.298L406.053 208.522L418.885 189.274" stroke="#263238" stroke-miterlimit="10" stroke-linecap="round" stroke-linejoin="round"/>
<path d="M413.996 184.997L412.73 188.746" stroke="#263238" stroke-miterlimit="10" stroke-linecap="round" stroke-linejoin="round"/>
<path d="M302.784 192.328C302.784 192.328 305.839 247.934 309.2 275.126C312.561 302.318 318.06 369.534 318.06 369.534C318.06 369.534 307.366 368.617 300.339 360.063C293.312 351.508 289.951 345.092 289.951 345.092C289.951 345.092 289.951 287.042 289.951 284.597C289.951 282.153 285.063 254.35 280.48 240.601C275.897 226.852 269.175 210.965 273.147 204.243C277.119 197.521 289.645 187.439 294.228 186.217C298.812 184.996 302.478 186.218 302.784 192.328Z" fill="#FFBDD0" stroke="#263238" stroke-miterlimit="10" stroke-linecap="round" stroke-linejoin="round"/>
<path d="M301.069 262.167C302.796 267.565 304.473 272.359 305.839 275.433Z" fill="white"/>
<path d="M301.069 262.167C302.796 267.565 304.473 272.359 305.839 275.433" stroke="#263238" stroke-miterlimit="10" stroke-linecap="round" stroke-linejoin="round"/>
<path d="M290.623 202.919C290.108 206.887 289.86 209.959 290.257 210.356C291.479 211.578 296.368 215.856 296.368 215.856C296.368 215.856 290.257 223.494 291.174 227.466C291.776 230.076 295.808 245.217 299.889 258.415" stroke="#263238" stroke-miterlimit="10" stroke-linecap="round" stroke-linejoin="round"/>
<path d="M293.923 182.552C293.923 182.552 292.312 191.309 291.171 199.002Z" fill="white"/>
<path d="M293.923 182.552C293.923 182.552 292.312 191.309 291.171 199.002" stroke="#263238" stroke-miterlimit="10" stroke-linecap="round" stroke-linejoin="round"/>
<path d="M297.494 323.798L292.09 321.262" stroke="#263238" stroke-miterlimit="10" stroke-linecap="round" stroke-linejoin="round"/>
<path d="M292.09 313.013L307.061 319.123V328.289L300.213 325.075" stroke="#263238" stroke-miterlimit="10" stroke-linecap="round" stroke-linejoin="round"/>
<path d="M279.957 155.569L285.179 168.364C285.179 168.364 278.39 161.314 276.823 167.581C275.256 173.848 279.956 181.159 283.09 181.159C286.223 181.159 289.879 181.42 289.879 181.42C289.879 181.42 300.846 200.742 307.635 204.398C314.424 208.054 323.563 211.187 329.307 208.054C335.052 204.921 338.185 196.304 340.013 189.776C341.841 183.248 340.535 163.665 340.535 163.665L331.135 125.02C331.135 125.02 337.663 122.67 337.663 118.231C337.663 113.792 322.518 112.487 322.518 112.487C322.518 112.487 328.523 105.437 320.951 104.393C313.379 103.349 288.834 117.971 288.051 118.493C287.268 119.015 292.229 109.354 285.962 112.749C279.695 116.144 272.384 132.855 273.167 136.771C273.952 140.685 279.957 155.569 279.957 155.569Z" fill="white" stroke="#263238" stroke-miterlimit="10" stroke-linecap="round" stroke-linejoin="round"/>
<path d="M322.518 112.485C322.518 112.485 328.523 105.435 320.951 104.391C313.379 103.347 288.834 117.969 288.051 118.491C287.268 119.013 292.229 109.352 285.962 112.747C279.695 116.142 272.384 132.853 273.167 136.769C273.95 140.686 279.956 155.569 279.956 155.569L285.178 168.364C285.178 168.364 291.184 173.847 289.095 169.67C287.006 165.492 282.828 156.092 283.873 154.787C284.917 153.481 290.14 151.392 290.401 148.52C290.662 145.648 285.44 137.292 287.007 135.203C288.574 133.114 310.768 137.031 314.685 134.681C318.602 132.331 313.641 126.586 313.641 126.586L331.136 125.019C331.136 125.019 337.664 122.669 337.664 118.23C337.663 113.791 322.518 112.485 322.518 112.485Z" fill="#737373" stroke="#263238" stroke-miterlimit="10" stroke-linecap="round" stroke-linejoin="round"/>
<path d="M325.913 176.98C325.913 176.98 323.563 181.419 319.907 181.68Z" fill="white"/>
<path d="M325.913 176.98C325.913 176.98 323.563 181.419 319.907 181.68" stroke="#263238" stroke-miterlimit="10" stroke-linecap="round" stroke-linejoin="round"/>
<path d="M309.724 164.97C310.453 166.54 310.142 168.23 309.03 168.747C307.918 169.263 306.426 168.409 305.698 166.839C304.969 165.269 305.28 163.579 306.392 163.062C307.503 162.546 308.995 163.4 309.724 164.97Z" fill="#263238"/>
<path d="M330.53 160.854C330.802 162.563 330.042 164.105 328.831 164.297C327.621 164.49 326.419 163.261 326.146 161.552C325.874 159.843 326.634 158.301 327.845 158.109C329.056 157.916 330.258 159.145 330.53 160.854Z" fill="#263238"/>
<path d="M319.907 191.602C319.907 191.602 324.346 191.602 327.479 189.252Z" fill="white"/>
<path d="M319.907 191.602C319.907 191.602 324.346 191.602 327.479 189.252" stroke="#263238" stroke-miterlimit="10" stroke-linecap="round" stroke-linejoin="round"/>
<path d="M296.668 161.574C296.668 161.574 300.324 156.352 310.246 159.485" stroke="#263238" stroke-width="2" stroke-miterlimit="10" stroke-linecap="round" stroke-linejoin="round"/>
<path d="M323.041 156.613C323.041 156.613 324.869 150.607 331.919 150.085" stroke="#263238" stroke-width="2" stroke-miterlimit="10" stroke-linecap="round" stroke-linejoin="round"/>
<path d="M337.663 151.391C337.663 151.391 339.491 147.213 341.58 149.824C343.669 152.435 344.452 157.657 343.147 161.052C341.841 164.447 341.058 167.319 341.058 167.319L340.536 163.663L337.663 151.391Z" fill="white" stroke="#263238" stroke-miterlimit="10" stroke-linecap="round" stroke-linejoin="round"/>
<path d="M385.708 131.024C385.708 131.024 356.986 125.802 355.158 125.802C353.33 125.802 331.919 129.719 328.786 131.024C325.653 132.33 301.891 139.119 302.414 140.685C302.936 142.252 305.808 142.774 305.808 142.774C305.808 142.774 306.33 145.124 314.686 146.169C323.042 147.213 342.625 144.602 342.886 146.43C343.147 148.258 341.58 149.824 341.58 149.824L343.93 154.002C343.93 154.002 352.547 152.696 355.419 150.607C358.291 148.518 366.386 141.99 366.386 141.99L383.881 143.295L385.708 131.024Z" fill="white" stroke="#263238" stroke-miterlimit="10" stroke-linecap="round" stroke-linejoin="round"/>
<path d="M321.996 134.68C321.996 134.68 310.245 139.641 308.417 140.686C306.589 141.73 311.812 143.819 314.946 143.297C318.079 142.775 330.09 138.075 331.917 137.552C333.745 137.03 342.1 139.119 348.106 139.902C354.112 140.685 358.289 138.858 359.334 138.335" fill="white"/>
<path d="M321.996 134.68C321.996 134.68 310.245 139.641 308.417 140.686C306.589 141.73 311.812 143.819 314.946 143.297C318.079 142.775 330.09 138.075 331.917 137.552C333.745 137.03 342.1 139.119 348.106 139.902C354.112 140.685 358.289 138.858 359.334 138.335" stroke="#263238" stroke-miterlimit="10" stroke-linecap="round" stroke-linejoin="round"/>
<path d="M456.464 172.775C456.464 172.775 447.298 175.219 436.299 172.775C425.3 170.331 396.275 155.971 396.275 155.971L376.416 150.166L380.999 126.946C380.999 126.946 431.106 133.056 445.16 138.25C459.214 143.444 479.685 155.36 479.074 159.637C478.463 163.914 467.158 173.08 467.158 173.08" fill="#FFBDD0"/>
<path d="M456.464 172.775C456.464 172.775 447.298 175.219 436.299 172.775C425.3 170.331 396.275 155.971 396.275 155.971L376.416 150.166L380.999 126.946C380.999 126.946 431.106 133.056 445.16 138.25C459.214 143.444 479.685 155.36 479.074 159.637C478.463 163.914 467.158 173.08 467.158 173.08" stroke="#263238" stroke-miterlimit="10" stroke-linecap="round" stroke-linejoin="round"/>
<path d="M284.365 272.605C284.365 272.605 302.75 293.671 318.262 286.585C333.774 279.499 341.434 234.112 341.434 234.112" stroke="#263238" stroke-miterlimit="10" stroke-linecap="round" stroke-linejoin="round"/>
<path d="M260.235 256.71C260.235 256.71 274.79 274.903 294.132 273.18C313.474 271.457 319.986 249.05 319.794 237.943" stroke="#263238" stroke-miterlimit="10" stroke-linecap="round" stroke-linejoin="round"/>
<path d="M268.629 245.319L262.488 243.256L252.813 272.051L258.953 274.114L268.629 245.319Z" fill="#7D7D7D" stroke="#263238" stroke-miterlimit="10" stroke-linecap="round" stroke-linejoin="round"/>
<path d="M271.39 242.712L261.861 239.511L260.438 243.746L269.967 246.948L271.39 242.712Z" fill="#263238" stroke="#263238" stroke-miterlimit="10" stroke-linecap="round" stroke-linejoin="round"/>
<path d="M282.181 249.872L276.04 247.809L266.365 276.604L272.505 278.667L282.181 249.872Z" fill="#7D7D7D" stroke="#263238" stroke-miterlimit="10" stroke-linecap="round" stroke-linejoin="round"/>
<path d="M284.94 247.265L275.412 244.063L273.989 248.298L283.518 251.499L284.94 247.265Z" fill="#263238" stroke="#263238" stroke-miterlimit="10" stroke-linecap="round" stroke-linejoin="round"/>
<path d="M279.902 256.648L259.999 249.961L252.6 271.982L272.503 278.669L279.902 256.648Z" fill="#263238" stroke="#263238" stroke-miterlimit="10" stroke-linecap="round" stroke-linejoin="round"/>
<path d="M254.319 286.692L235.751 280.454L245.595 264.203L256.284 267.794L254.319 286.692Z" fill="#7D7D7D" stroke="#263238" stroke-miterlimit="10" stroke-linecap="round" stroke-linejoin="round"/>
<path d="M254.304 286.69L235.736 280.451L229.116 300.155L247.683 306.394L254.304 286.69Z" fill="#636363" stroke="#263238" stroke-miterlimit="10" stroke-linecap="round" stroke-linejoin="round"/>
<path d="M265.441 249.197L249.497 243.84L242.876 263.544L258.82 268.901L265.441 249.197Z" fill="#636363" stroke="#263238" stroke-miterlimit="10" stroke-linecap="round" stroke-linejoin="round"/>
<path d="M281.422 295.799L262.854 289.561L272.698 273.31L283.387 276.901L281.422 295.799Z" fill="#7D7D7D" stroke="#263238" stroke-miterlimit="10" stroke-linecap="round" stroke-linejoin="round"/>
<path d="M281.407 295.796L262.84 289.558L256.219 309.262L274.787 315.5L281.407 295.796Z" fill="#636363" stroke="#263238" stroke-miterlimit="10" stroke-linecap="round" stroke-linejoin="round"/>
<path d="M292.541 258.303L276.598 252.946L269.977 272.65L285.921 278.007L292.541 258.303Z" fill="#636363" stroke="#263238" stroke-miterlimit="10" stroke-linecap="round" stroke-linejoin="round"/>
<path d="M243.204 242.526C243.204 242.526 241.04 246.09 241.677 247.108C242.313 248.126 248.55 251.563 249.441 251.817C250.332 252.071 252.75 250.799 252.623 249.144C252.496 247.489 247.659 243.926 246.132 243.035C244.604 242.144 243.84 242.017 243.204 242.526Z" fill="white" stroke="#263238" stroke-miterlimit="10" stroke-linecap="round" stroke-linejoin="round"/>
<path d="M239.777 249.568C239.777 249.568 238.734 253.605 239.637 254.396C240.54 255.187 247.503 256.677 248.43 256.664C249.357 256.651 251.304 254.734 250.705 253.186C250.106 251.639 244.446 249.622 242.727 249.21C241.007 248.798 240.239 248.897 239.777 249.568Z" fill="white" stroke="#263238" stroke-miterlimit="10" stroke-linecap="round" stroke-linejoin="round"/>
<path d="M237.867 256.569C237.867 256.569 236.824 260.606 237.727 261.397C238.63 262.188 245.593 263.678 246.52 263.665C247.446 263.651 249.394 261.735 248.795 260.187C248.196 258.639 242.536 256.623 240.817 256.211C239.097 255.799 238.329 255.897 237.867 256.569Z" fill="white" stroke="#263238" stroke-miterlimit="10" stroke-linecap="round" stroke-linejoin="round"/>
<path d="M238.758 263.314C238.758 263.314 237.715 267.351 238.618 268.142C239.521 268.933 246.484 270.423 247.411 270.41C248.337 270.396 250.285 268.48 249.686 266.932C249.087 265.384 243.427 263.368 241.708 262.956C239.988 262.544 239.22 262.643 238.758 263.314Z" fill="white" stroke="#263238" stroke-miterlimit="10" stroke-linecap="round" stroke-linejoin="round"/>
</svg>
