<svg width="1440" height="150" viewBox="0 0 1440 150" fill="none" xmlns="http://www.w3.org/2000/svg">
<path d="M0 13H1440V13C1440 20.281 1433.27 26.3211 1426.05 27.232C1420.09 27.9834 1412.33 29.6242 1403 33C1393.02 36.6111 1377.08 56.2774 1382.2 117.13C1382.38 119.342 1382.26 121.617 1381.73 123.773C1374.69 152.181 1366.72 149.013 1364.5 149C1357.87 148.961 1346 148.5 1340.5 118.5C1336.1 94.5 1384.5 34.5 1342 36.5C1299.5 38.5 1331.5 102.5 1312.5 102C1293.5 101.5 1292.39 71 1291.5 65C1282 0.999969 1271.24 35.2746 1258 34.5C1243.55 33.6544 1246 15 1218.5 20C1191 25 1182 37 1147.5 31.5C1113 26 1122.46 68.1543 1099 68.5C1085.49 68.699 1080.15 42.0611 1067.58 37.7645C1065.3 36.984 1062.85 37.62 1060.57 38.4219C1042.52 44.7834 1022.79 48.743 996 29C975 19 981.602 22.8405 959 23C897 49.5 853.5 56 807 33.3321C807 33.3321 781.296 22.9693 764.5 23C749.041 23.0282 714.322 36.9845 697.5 37C679.278 37.0167 672.5 40.5 656.5 33.5C643.903 29.0012 635.759 18.8354 625.148 21.5773C622.639 22.2255 620.635 24.0344 618.825 25.8885C601.831 43.2981 590.73 36.6334 589 35.5C574.5 26 575.35 23.7387 567 24.5C544.831 26.5209 554.458 46.5 555.5 59C556.542 71.5 546.5 80.5 536 79C525.5 77.5 546 48.5 538 33.5C530 18.5 501.774 21.5159 489.5 21.5C476.622 21.4833 451.268 38.0375 439.5 38C421.369 37.9421 381.128 23.1121 366 23C346.013 22.8518 312.842 35.7542 299 35.5C276.181 35.0809 269.912 30.7537 267.5 30C245.414 23.0981 235.184 17.0431 214.989 31.3179C211.337 33.8997 206.931 36.5206 205.859 40.8631C203.835 49.061 203.987 65.3423 203.999 80.4003C204 81.4661 203.928 82.5335 203.728 83.5802C201.114 97.2049 192.906 103.712 191 103.5C187.01 103.057 177.123 105.758 171.1 95.2221C169.415 92.2759 169.297 88.7471 169.699 85.3772C172.735 59.9184 166.666 51.7841 157 52.5C144.949 53.3924 153 71.5 134.5 71.5C116 71.5 114.516 26.8412 102 28C69.7847 30.9828 84 95.5 86.5 110C89 124.5 73.5 125 66.5 124C59.5 123 52.5 117.5 51 106.5C49.5 95.5 61.2661 58.7708 54 38C48.782 23.0838 28.0977 35.709 23.5 35.5C19.0116 35.296 14.2735 33.8432 10.2367 32.1948C3.60752 29.4878 0 22.668 0 15.5074V13Z" fill="#FFBDD0"/>
<path d="M82.7526 112.399C82.3796 114.014 75.3686 120.957 67.8351 119.216C60.3016 117.475 56.0727 107.935 56.4457 106.321C56.8187 104.707 58.4665 112.259 66 114C73.5335 115.741 83.1256 110.785 82.7526 112.399Z" fill="white" fill-opacity="0.16"/>
<path d="M547.537 73.1201C547.303 74.1333 542.903 78.491 538.174 77.3985C533.446 76.306 535.379 67.1629 535.613 66.1497C535.847 65.1365 535.272 72.9075 540 74C544.728 75.0925 547.771 72.1069 547.537 73.1201Z" fill="white" fill-opacity="0.16"/>
<path d="M142.559 64.384C142.367 65.2162 137.036 68.3988 130.633 66.9194C124.231 65.44 125.727 57.9094 125.92 57.0773C126.112 56.2451 126.256 62.7703 132.659 64.2497C139.062 65.7291 142.751 63.5518 142.559 64.384Z" fill="white" fill-opacity="0.16"/>
<path d="M1374.82 130.995C1374.08 132.477 1362.77 142.737 1355.85 139.28C1348.93 135.822 1348.07 120.209 1348.81 118.727C1349.56 117.245 1348.93 129.769 1355.85 133.227C1362.77 136.685 1375.56 129.513 1374.82 130.995Z" fill="white" fill-opacity="0.16"/>
<path d="M1317.8 90.0743C1317.64 91.035 1312.78 98.7154 1307.86 97.9127C1302.93 97.11 1299.28 88.4319 1299.44 87.4712C1299.6 86.5106 1301.72 93.6902 1306.64 94.4929C1311.57 95.2955 1317.96 89.1137 1317.8 90.0743Z" fill="white" fill-opacity="0.16"/>
<path d="M614.541 26.2203C613.8 27.7023 600.306 37.4578 593.391 33.9998C586.475 30.5419 583.259 25.9819 584 24.4999C584.741 23.018 586.475 27.042 593.391 30.5C600.306 33.9579 615.282 24.7384 614.541 26.2203Z" fill="white" fill-opacity="0.16"/>
<path d="M700.267 30.9454C699.471 32.3983 673.494 39.0103 664.384 34.0169C655.275 29.0236 649.448 24.7663 650.245 23.3134C651.041 21.8606 659.031 26.3028 668.14 31.2961C677.25 36.2894 701.063 29.4925 700.267 30.9454Z" fill="white" fill-opacity="0.16"/>
<path d="M314.264 24.9323C313.782 26.7929 297.749 31.8697 290.264 29.9323C285.362 28.6635 277.343 27.769 272.038 25.7584C267.685 24.1087 269.12 21.0879 273.646 22.1736C279.216 23.5096 286.835 25.7861 291.264 26.9323C298.749 28.8697 314.679 23.3283 314.264 24.9323Z" fill="white" fill-opacity="0.16"/>
<path d="M7.04898 26.0505C7.53054 27.9111 17.8283 34.4723 22.2015 33.3404C25.2327 32.5559 30.4366 32.5316 33.4173 30.8502C35.9035 29.4476 34.3626 26.8271 31.5782 27.4563C28.3117 28.1945 23.8804 29.647 21.2886 30.3179C16.9154 31.4498 6.63383 24.4465 7.04898 26.0505Z" fill="white" fill-opacity="0.16"/>
<path d="M1046.21 36.6262C1045.37 38.3554 1028.65 40.1741 1021.7 36.8001C1017.14 34.5904 1009.45 32.1337 1004.65 29.1174C1000.71 26.6425 1002.71 23.9635 1006.93 25.9197C1012.13 28.3268 1019.15 32.0597 1023.27 34.0559C1030.22 37.4299 1046.93 35.1354 1046.21 36.6262Z" fill="white" fill-opacity="0.16"/>
<path d="M1187.61 23.6862C1187.43 25.1858 1172.45 30.4727 1164.77 29.5598C1160.3 29.0277 1153.44 28.9288 1148.08 28.1046C1142.45 27.2404 1143.23 24.3582 1148.88 25.0065C1154.36 25.6349 1161.17 26.6358 1165.28 27.1238C1172.96 28.0367 1187.76 22.3935 1187.61 23.6862Z" fill="white" fill-opacity="0.16"/>
<path d="M1105.2 63.4906C1104.18 64.4503 1091.43 61.4476 1089.79 58.0945C1088.9 56.2856 1087.34 54.4867 1086.55 52.7672C1085.28 50.0169 1088.49 49.2741 1089.96 51.9184C1091 53.7943 1092.09 56.0661 1092.87 57.6665C1094.52 61.0195 1108.11 60.7518 1105.2 63.4906Z" fill="white" fill-opacity="0.16"/>
<path d="M1260.86 32.3392C1260.11 33.0452 1250.73 30.8362 1249.52 28.3693C1249.05 27.4042 1248.31 26.4429 1247.72 25.5049C1246.11 22.9427 1248.82 22.2046 1250.22 24.8898C1250.8 26.0012 1251.36 27.1678 1251.79 28.0544C1253 30.5212 1263 30.3243 1260.86 32.3392Z" fill="white" fill-opacity="0.16"/>
<path d="M881.562 39.3267C883.226 43.3925 837.438 43.9788 823.497 37.3601C815.317 33.477 806.651 29.3138 800.712 25.7025C795.166 22.3308 796.705 20.0843 802.634 22.7243C810.412 26.1877 821.737 31.4466 831.293 35.2882C847.486 41.7978 879.897 35.2609 881.562 39.3267Z" fill="white" fill-opacity="0.16"/>
<path d="M455.264 27.9323C454.782 29.7929 438.749 34.8697 431.264 32.9323C426.362 31.6635 418.343 30.769 413.038 28.7584C408.685 27.1087 410.12 24.0879 414.646 25.1736C420.216 26.5096 427.835 28.7861 432.264 29.9323C439.749 31.8697 455.679 26.3283 455.264 27.9323Z" fill="white" fill-opacity="0.16"/>
<path d="M191.397 92.1475C198.008 89.0588 198.761 91.4686 192.578 95.3434C191.896 95.7707 191.2 96.1627 190.5 96.5C186.111 98.6152 181.717 98.1087 178.5 96.5C176.029 95.2643 172.727 86.1395 173 83.5C173.592 77.769 177.239 79.3641 178.244 85.0373C178.813 88.2504 180.246 91.623 183 93C185.511 94.2555 188.548 93.4788 191.397 92.1475Z" fill="white" fill-opacity="0.16"/>
</svg>
